<?xml version="1.0" encoding="UTF-8"?>
<svg width="540px" height="136px" viewBox="0 0 540 136" version="1.1" xmlns="http://www.w3.org/2000/svg" xmlns:xlink="http://www.w3.org/1999/xlink">
    <title>Leamo-Logo</title>
    <g id="Page-1" stroke="none" stroke-width="1" fill="none" fill-rule="evenodd">
        <g id="homepage" transform="translate(-165.000000, -516.000000)" fill="#000000" fill-rule="nonzero">
            <g id="Leamo-Logo" transform="translate(165.000000, 516.975180)">
                <path d="M474.932725,105.937049 C471.364728,100.747237 469.613167,93.157136 469.613167,83.2316194 C469.613167,73.4358481 471.429601,65.9106199 475.06247,60.78568 C478.695339,55.66074 484.144642,53.0658337 491.540125,53.0658337 C498.870735,53.0658337 504.384911,55.66074 508.01778,60.78568 C511.650649,65.9106199 513.467083,73.4358481 513.467083,83.2316194 C513.467083,93.0273907 511.650649,100.617492 508.01778,105.872177 C504.384911,111.126862 498.935608,113.786641 491.540125,113.786641 C484.014897,113.721768 478.435848,111.126862 474.932725,105.937049 M511.520903,130.84815 C517.554061,128.512734 522.679,125.139356 526.895723,120.728015 C531.112446,116.316675 534.356079,110.932244 536.626622,104.639596 C538.897165,98.3469486 540,91.1460836 540,83.1667468 C540,75.3171552 538.897165,68.2460356 536.691494,61.8885151 C534.485824,55.5958674 531.242191,50.2114368 527.025469,45.8649688 C522.808746,41.5185007 517.683806,38.1451225 511.650649,35.8097069 C505.617492,33.4742912 498.870735,32.3065834 491.41038,32.3065834 C484.079769,32.3065834 477.333013,33.4742912 471.364728,35.8097069 C465.331571,38.1451225 460.206631,41.5185007 455.989909,45.8649688 C451.773186,50.2114368 448.529553,55.5309947 446.25901,61.8885151 C443.988467,68.1811629 442.885632,75.3171552 442.885632,83.1667468 C442.885632,99.5795291 447.102355,112.229697 455.600673,121.052379 C464.098991,129.87506 476.03556,134.286401 491.475252,134.286401 C498.805863,134.351273 505.552619,133.183566 511.520903,130.84815 M292.510812,131.432004 L318.265257,131.432004 L318.265257,73.6304661 C318.265257,70.8409419 318.784238,68.1811629 319.822201,65.7808746 C320.860163,63.3805863 322.222489,61.3046612 323.974051,59.6179721 C326.049976,57.5420471 328.190774,56.049976 330.331571,55.2066314 C332.472369,54.3632869 334.872657,53.9091783 337.402691,53.9091783 C339.024507,53.9091783 340.516579,54.1686689 342.00865,54.6227775 C343.500721,55.1417588 344.733301,55.9851033 345.771264,57.2176838 C346.809226,58.4502643 347.652571,60.1369534 348.236425,62.2777511 C348.820279,64.4185488 349.144642,67.208073 349.144642,70.6463239 L349.144642,131.432004 L374.899087,131.432004 L374.899087,72.5276309 C374.899087,70.06247 375.418068,67.7270543 376.456031,65.521384 C377.493993,63.3157136 378.856319,61.3695339 380.607881,59.6179721 C382.683806,57.5420471 384.824604,56.049976 386.965401,55.2066314 C389.106199,54.3632869 391.506487,53.9091783 394.036521,53.9091783 C395.658337,53.9091783 397.150408,54.1686689 398.64248,54.6227775 C400.134551,55.1417588 401.367131,55.9851033 402.405094,57.2176838 C403.443056,58.4502643 404.286401,60.1369534 404.870255,62.2777511 C405.454109,64.4185488 405.778472,67.208073 405.778472,70.6463239 L405.778472,131.432004 L431.532917,131.432004 L431.532917,67.208073 C431.532917,54.9471408 429.067756,46.0595867 424.072561,40.6102835 C419.077367,35.1609803 411.617011,32.4363287 401.691494,32.4363287 C395.788083,32.4363287 390.403652,33.7337818 385.47333,36.3286881 C380.543008,38.9235944 375.872177,43.1403172 371.460836,49.043729 C369.644402,43.6592984 366.465642,39.5074483 362.054301,36.7179241 C357.64296,33.9283998 351.934166,32.5012013 344.927919,32.5012013 C339.673234,32.5012013 334.613167,33.7986545 329.81259,36.3935608 C325.012013,38.9884671 320.860163,42.9456992 317.292167,48.3301297 L317.292167,35.3555983 L292.251321,35.3555983 L292.251321,131.432004 L292.510812,131.432004 Z M253.133109,93.4814993 C253.133109,97.4387314 252.41951,100.682364 250.927439,103.342143 C249.435368,106.001922 247.554061,108.14272 245.218645,109.894282 C241.066795,112.943296 235.617492,114.50024 229.000481,114.50024 C225.043248,114.50024 221.994234,113.592023 219.788563,111.710716 C217.582893,109.894282 216.480058,107.364248 216.480058,104.185488 C216.480058,102.109563 216.804421,100.228256 217.388275,98.4766939 C217.972129,96.7900048 219.204709,95.233061 220.956271,93.9356079 C222.707833,92.6381547 225.302739,91.6001922 228.611245,90.691975 C231.91975,89.8486305 236.266218,89.2647765 241.650649,89.0052859 L253.068236,88.421432 L253.068236,93.4814993 L253.133109,93.4814993 Z M253.65209,131.432004 L277.979337,131.432004 L277.979337,70.7111965 C277.979337,64.8077847 277.265738,59.4882268 275.838539,54.8173955 C274.411341,50.0816915 272.140798,46.0595867 269.02691,42.7510812 C265.913023,39.4425757 261.761173,36.912542 256.57136,35.0961076 C251.44642,33.3445459 245.153772,32.4363287 237.823162,32.4363287 C225.82172,32.4363287 216.220567,34.7068717 209.084575,39.1830851 C201.948582,43.6592984 197.537242,50.925036 195.850553,60.9802979 L219.399327,63.1859683 C220.891398,55.4661221 226.729938,51.5737626 236.914945,51.5737626 C241.326285,51.5737626 245.153772,52.6765978 248.397405,54.8822681 C251.641038,57.0879385 253.262854,61.1100432 253.262854,67.0134551 L253.262854,71.8140317 L240.937049,72.3978856 C234.774147,72.6573763 228.74099,73.2412302 222.837578,74.21432 C216.869294,75.1874099 211.549736,76.874099 206.749159,79.2095147 C201.948582,81.5449303 198.121096,84.7885632 195.136953,88.9404133 C192.217684,93.0922633 190.725613,98.5415666 190.725613,105.158578 C190.725613,110.218645 191.568957,114.50024 193.320519,118.133109 C195.007208,121.765978 197.342624,124.75012 200.197021,127.085536 C203.051418,129.420951 206.424796,131.107641 210.317155,132.210476 C214.209515,133.313311 218.231619,133.897165 222.578087,133.897165 C230.038443,133.897165 236.136473,132.534839 240.872177,129.87506 C245.607881,127.150408 249.889476,123.712158 253.65209,119.36569 L253.65209,131.432004 L253.65209,131.432004 Z M118.3926,72.7222489 C118.522345,69.8029793 119.041326,67.0783277 120.079289,64.5482941 C121.052379,62.0182605 122.414704,59.8125901 124.231139,57.931283 C125.982701,56.049976 128.188371,54.5579049 130.783277,53.390197 C133.378184,52.2873618 136.362326,51.7035079 139.800577,51.7035079 C146.677078,51.7035079 151.737146,53.5199423 154.980778,57.2176838 C158.224411,60.9154253 159.846228,66.0403652 159.846228,72.6573763 L118.3926,72.6573763 L118.3926,72.7222489 Z M158.483902,101.395963 C156.667468,109.959154 150.63431,114.305622 140.449303,114.305622 C133.118693,114.305622 127.539644,112.099952 123.906776,107.753484 C120.209034,103.407016 118.262854,97.3738587 118.003364,89.6540125 L184.627583,89.6540125 L184.627583,79.33926 C184.627583,65.0024027 180.929841,53.584815 173.469486,45.0864969 C166.074003,36.5881788 154.980778,32.371456 140.254685,32.371456 C133.118693,32.371456 126.631427,33.5391639 120.728015,35.7448342 C114.824604,38.0153772 109.764536,41.3887554 105.547814,45.8000961 C101.331091,50.2114368 98.0225853,55.5958674 95.6871696,61.8885151 C93.351754,68.1811629 92.1840461,75.4469005 92.1840461,83.49111 C92.1840461,99.7092744 96.2061509,112.229697 104.25036,121.052379 C112.29457,129.87506 124.296012,134.286401 140.254685,134.286401 C153.488707,134.286401 163.608842,131.496877 170.550216,125.917828 C177.491591,120.338779 181.773186,112.164825 183.524748,101.331091 L158.483902,101.331091 L158.483902,101.395963 Z M0,131.432004 L86.6698703,131.432004 L89.5891398,107.883229 L27.4411341,107.883229 L27.4411341,9.9475983e-14 L0,9.9475983e-14 L0,131.432004 Z" id="Shape"></path>
            </g>
        </g>
    </g>
</svg>