<?xml version="1.0" encoding="UTF-8"?>
<svg width="146px" height="36px" viewBox="0 0 146 36" version="1.1" xmlns="http://www.w3.org/2000/svg" xmlns:xlink="http://www.w3.org/1999/xlink">
    <title>Leamo-Logo Copy</title>
    <g id="Page-1" stroke="none" stroke-width="1" fill="none" fill-rule="evenodd">
        <g id="Mobile-Homepage" transform="translate(-134.000000, -21.000000)" fill="#000000" fill-rule="nonzero">
            <g id="Leamo-Logo-Copy" transform="translate(134.618772, 21.000000)">
                <path d="M127.31931,28.3994582 C126.362807,27.0081804 125.89325,24.9734366 125.89325,22.3126178 C125.89325,19.6865809 126.380198,17.6692281 127.354092,16.2953413 C128.327987,14.9214545 129.788828,14.2258156 131.771399,14.2258156 C133.736579,14.2258156 135.214812,14.9214545 136.188706,16.2953413 C137.162601,17.6692281 137.649548,19.6865809 137.649548,22.3126178 C137.649548,24.9386546 137.162601,26.9733984 136.188706,28.3820672 C135.214812,29.790736 133.75397,30.5037659 131.771399,30.5037659 C129.754046,30.4863749 128.258423,29.790736 127.31931,28.3994582 M137.127819,35.0775917 C138.745179,34.4515166 140.119066,33.5471861 141.249479,32.3645999 C142.379892,31.1820138 143.249441,29.7385631 143.858125,28.0516387 C144.466809,26.3647144 144.762456,24.4343164 144.762456,22.2952268 C144.762456,20.1909191 144.466809,18.2953031 143.875516,16.5909878 C143.284223,14.9040635 142.414674,13.4606128 141.284261,12.2954176 C140.153848,11.1302224 138.779961,10.2258919 137.162601,9.59981685 C135.54524,8.97374184 133.736579,8.66070433 131.736617,8.66070433 C129.771437,8.66070433 127.962776,8.97374184 126.362807,9.59981685 C124.745446,10.2258919 123.371559,11.1302224 122.241146,12.2954176 C121.110733,13.4606128 120.241184,14.8866725 119.6325,16.5909878 C119.023816,18.2779122 118.72817,20.1909191 118.72817,22.2952268 C118.72817,26.6951429 119.858583,30.0863825 122.1368,32.4515548 C124.415018,34.8167271 127.614957,35.9993132 131.754008,35.9993132 C133.719188,36.0167042 135.527849,35.7036667 137.127819,35.0775917 M78.4158953,35.2341104 L85.3201114,35.2341104 L85.3201114,19.7387539 C85.3201114,18.990942 85.4592392,18.2779122 85.7374947,17.6344462 C86.0157503,16.9909802 86.3809607,16.4344691 86.850517,15.9823038 C87.4070281,15.4257927 87.9809302,15.0258003 88.5548323,14.7997176 C89.1287344,14.573635 89.7722003,14.4518982 90.4504483,14.4518982 C90.8852226,14.4518982 91.285215,14.5214621 91.6852073,14.6431989 C92.0851997,14.7823267 92.4156282,15.0084093 92.6938837,15.3388378 C92.9721393,15.6692663 93.1982219,16.1214316 93.3547407,16.6953337 C93.5112594,17.2692358 93.5982143,18.0170476 93.5982143,18.9387691 L93.5982143,35.2341104 L100.50243,35.2341104 L100.50243,19.4431073 C100.50243,18.7822504 100.641558,18.1561754 100.919814,17.5648823 C101.198069,16.9735892 101.56328,16.45186 102.032836,15.9823038 C102.589347,15.4257927 103.163249,15.0258003 103.737151,14.7997176 C104.311053,14.573635 104.954519,14.4518982 105.632767,14.4518982 C106.067542,14.4518982 106.467534,14.5214621 106.867526,14.6431989 C107.267519,14.7823267 107.597947,15.0084093 107.876203,15.3388378 C108.154458,15.6692663 108.380541,16.1214316 108.53706,16.6953337 C108.693578,17.2692358 108.780533,18.0170476 108.780533,18.9387691 L108.780533,35.2341104 L115.684749,35.2341104 L115.684749,18.0170476 C115.684749,14.7301538 115.023893,12.3475905 113.684788,10.8867488 C112.345683,9.42590713 110.345721,8.69548628 107.684902,8.69548628 C106.102324,8.69548628 104.658873,9.04330573 103.337159,9.73894463 C102.015445,10.4345835 100.763295,11.5649968 99.5807089,13.1475753 C99.0937616,11.7041245 98.241604,10.5911023 97.0590179,9.84329047 C95.8764317,9.09547865 94.3460261,8.71287725 92.4678011,8.71287725 C91.0591323,8.71287725 89.7026365,9.0606967 88.4157045,9.75633561 C87.1287725,10.4519745 86.0157503,11.5128238 85.0592468,12.9562746 L85.0592468,9.47808004 L78.3463314,9.47808004 L78.3463314,35.2341104 L78.4158953,35.2341104 Z M67.8595749,25.0603915 C67.8595749,26.1212408 67.6682742,26.9907894 67.2682819,27.7038193 C66.8682895,28.4168492 66.3639513,28.9907513 65.7378763,29.4603075 C64.624854,30.2776832 63.1640123,30.6950666 61.3901331,30.6950666 C60.3292838,30.6950666 59.5119081,30.451593 58.920615,29.9472547 C58.329322,29.4603075 58.0336754,28.7820596 58.0336754,27.9299019 C58.0336754,27.3733908 58.1206303,26.8690526 58.277149,26.3994963 C58.4336678,25.9473311 58.7640963,25.5299477 59.2336525,25.1821283 C59.7032088,24.8343088 60.3988477,24.5560533 61.2857873,24.3125796 C62.1727269,24.086497 63.3379221,23.9299782 64.7813728,23.8604144 L67.842184,23.7038956 L67.842184,25.0603915 L67.8595749,25.0603915 Z M67.9987027,35.2341104 L74.5203174,35.2341104 L74.5203174,18.9561601 C74.5203174,17.3735816 74.3290167,15.9475218 73.9464153,14.6953718 C73.5638139,13.4258308 72.9551299,12.3475905 72.1203632,11.4606509 C71.2855965,10.5737113 70.1725743,9.89546339 68.7812965,9.40851615 C67.4074096,8.9389599 65.7204853,8.69548628 63.7553054,8.69548628 C60.5379755,8.69548628 57.9641115,9.30417032 56.0511046,10.5041474 C54.1380976,11.7041245 52.9555114,13.6519135 52.5033462,16.3475142 L58.8162692,16.9388073 C59.2162616,14.8692815 60.7814491,13.8258232 63.5118318,13.8258232 C64.6944179,13.8258232 65.7204853,14.1214697 66.5900339,14.7127628 C67.4595826,15.3040559 67.8943569,16.3822962 67.8943569,17.9648747 L67.8943569,19.2518066 L64.5900721,19.4083254 C62.9379297,19.4778893 61.3205692,19.634408 59.7379907,19.8952726 C58.1380213,20.1561372 56.7119615,20.6083025 55.4250295,21.2343775 C54.1380976,21.8604525 53.1120302,22.7300011 52.3120455,23.8430234 C51.5294517,24.9560456 51.1294593,26.4168873 51.1294593,28.1907665 C51.1294593,29.5472624 51.355542,30.6950666 51.8250982,31.668961 C52.2772635,32.6428555 52.9033385,33.4428402 53.6685413,34.0689152 C54.4337441,34.6949903 55.3380747,35.1471555 56.381533,35.4428021 C57.4249914,35.7384486 58.5032317,35.8949674 59.6684268,35.8949674 C61.6683887,35.8949674 63.3031401,35.5297569 64.5726811,34.8167271 C65.8422221,34.0863062 66.9900263,33.1645847 67.9987027,31.9993895 L67.9987027,35.2341104 L67.9987027,35.2341104 Z M31.7385249,19.4952802 C31.7733069,18.7126865 31.9124346,17.9822656 32.1906902,17.3040177 C32.4515548,16.6257698 32.8167652,16.0344767 33.3037125,15.5301385 C33.7732687,15.0258003 34.3645618,14.6258079 35.0602007,14.3127704 C35.7558396,14.0171239 36.5558243,13.8606051 37.4775459,13.8606051 C39.320989,13.8606051 40.6774848,14.3475524 41.5470334,15.3388378 C42.4165821,16.3301232 42.8513564,17.7040101 42.8513564,19.4778893 L31.7385249,19.4778893 L31.7385249,19.4952802 Z M42.486146,27.1820901 C41.9991987,29.4776985 40.3818383,30.6428936 37.6514556,30.6428936 C35.6862757,30.6428936 34.1906521,30.0516006 33.2167576,28.8864054 C32.2254722,27.7212103 31.703743,26.1038498 31.6341791,24.0343241 L49.4947079,24.0343241 L49.4947079,21.2691594 C49.4947079,17.4257545 48.5034225,14.3649433 46.5034606,12.0867259 C44.5208898,9.80850852 41.5470334,8.67809531 37.5992827,8.67809531 C35.6862757,8.67809531 33.9471784,8.99113281 32.3645999,9.58242588 C30.7820214,10.1911099 29.4255256,11.0954405 28.2951124,12.2780266 C27.1646991,13.4606128 26.2777595,14.9040635 25.6516845,16.5909878 C25.0256095,18.2779122 24.712572,20.2257011 24.712572,22.3821817 C24.712572,26.7299248 25.7908123,30.0863825 27.9472929,32.4515548 C30.1037735,34.8167271 33.3211034,35.9993132 37.5992827,35.9993132 C41.1470411,35.9993132 43.8600328,35.2515014 45.7208669,33.7558777 C47.5817009,32.2602541 48.7295051,30.0689916 49.1990614,27.1646991 L42.486146,27.1646991 L42.486146,27.1820901 Z M0,35.2341104 L23.2343393,35.2341104 L24.0169331,28.9211874 L7.35638139,28.9211874 L7.35638139,-3.55271368e-15 L0,-3.55271368e-15 L0,35.2341104 Z" id="Shape"></path>
            </g>
        </g>
    </g>
</svg>