<?xml version="1.0" encoding="UTF-8"?>
<svg width="95px" height="94px" viewBox="0 0 95 94" version="1.1" xmlns="http://www.w3.org/2000/svg" xmlns:xlink="http://www.w3.org/1999/xlink">
    <title>logo_natural</title>
    <g id="Page-1" stroke="none" stroke-width="1" fill="none" fill-rule="evenodd">
        <g id="détail-Ginger-Beer" transform="translate(-288.000000, -693.000000)" fill="#000000" fill-rule="nonzero">
            <g id="logo_natural" transform="translate(288.807472, 693.000000)">
                <path d="M93.4217454,46.6212521 C93.4848145,71.8599772 73.3004572,93.4110308 46.670953,93.3929801 C20.5772902,93.3749067 -0.209136005,72.3807668 0.00158808329,46.3021556 C0.209301828,20.8466857 20.5863212,-0.0270404595 46.758253,2.62932349e-05 C73.14994,0.0271457348 93.4155766,21.3283408 93.4217454,46.6212521 Z M1.62717391,46.7085521 C1.72350492,71.5800152 21.5074865,91.4874209 46.1862876,91.7523312 C71.4852197,92.0232622 91.765908,71.8810496 91.790018,46.7717693 C91.8170839,21.5330442 71.5966024,1.67982466 46.6860048,1.62250727 C21.835614,1.56543158 1.63620494,21.8190269 1.62717391,46.7085521 Z" id="Shape"></path>
                <path d="M2.53027715,46.6573762 C2.53629784,22.3127233 22.4045691,2.43241069 46.7733047,2.52839309 C71.1390301,2.62206237 90.9832186,22.0959785 90.8872368,46.8861624 C90.7905565,71.3512291 71.1450508,90.8100935 46.6950358,90.8704367 C22.3413518,90.9305073 2.5272668,71.0381533 2.53328749,46.6603866 L2.53027715,46.6573762 Z M3.27684249,46.786821 C3.4273597,70.685943 22.4677863,90.0605178 46.6468703,90.1027222 C70.7627371,90.1417971 90.173436,70.8996775 90.1343606,46.6393142 C90.095167,22.3789509 70.7055405,3.31745186 46.7612634,3.29635719 C22.4497242,3.2722967 3.32801834,22.791368 3.27383215,46.7838107 L3.27684249,46.786821 Z" id="Shape"></path>
                <path d="M78.418243,46.6935004 C78.4782491,63.7952653 64.7510799,78.4074757 46.7040668,78.4014569 C28.7594055,78.3954343 14.8877398,63.9668549 14.9991225,46.4948176 C15.1074949,29.0468631 29.0544192,14.970494 46.758253,14.9945459 C64.9919074,15.0186595 78.4782491,29.8084802 78.418243,46.6935004 Z M16.630729,46.6935004 C16.6638428,63.0968655 29.6956225,76.6554554 46.5505393,76.7608175 C63.2158044,76.8661795 76.7954667,63.599593 76.7924569,46.6754383 C76.789446,30.0161939 63.5078077,16.6954212 46.740191,16.6259413 C30.1230914,16.5599557 16.630729,30.1004835 16.630729,46.6935004 Z" id="Shape"></path>
                <path d="M43.7900537,9.95225031 C43.6485675,8.77520576 43.504071,7.59816121 43.3716159,6.42111665 C43.3385021,6.12309259 43.1458401,5.72271682 43.4649366,5.55413755 C43.871333,5.34040311 44.3650294,5.31632036 44.8316328,5.37652724 C45.0363362,5.40362034 45.0543982,5.63240649 45.0754707,5.80399611 C45.3524223,8.04971283 45.6203429,10.2984399 45.8912739,12.5441566 C45.909336,12.7006945 45.918367,12.854222 45.7738705,12.9716255 C45.4306913,13.2515875 44.2054812,13.1462254 43.8924054,12.8060565 C42.7364333,11.541712 41.5804611,10.2803778 40.3341787,8.91970228 C40.4997476,10.3526261 40.6322027,11.6621258 40.8158337,12.9625944 C40.8820613,13.4322081 40.7827199,13.6339012 40.2830028,13.6971184 C39.0818755,13.8476356 39.1029479,13.8656977 38.9674824,12.6766117 C38.744717,10.6988157 38.5099101,8.72402991 38.2480102,6.74924416 C38.1757619,6.2194236 38.386486,6.10503052 38.8530894,6.00869951 C39.6448099,5.84313058 40.1505477,6.10804087 40.6562855,6.71613038 C41.6045439,7.85103011 42.6431126,8.9076609 43.6455572,9.99740547 C43.6937227,9.98235375 43.7388779,9.96429169 43.7870434,9.94923997 L43.7900537,9.95225031 Z" id="Path"></path>
                <path d="M44.7202501,84.3107605 C44.8406638,83.0704987 44.9701086,81.8272266 45.0724603,80.5839545 C45.1146051,80.0872477 45.2199672,79.7711616 45.8370877,79.8464202 C46.8636151,79.9728546 46.9238219,79.9969374 46.8515737,80.7615648 C46.6589117,82.7604333 46.4722703,84.7623121 46.2525152,86.7611806 C46.2194014,87.0742564 46.3548669,87.5197874 45.9033153,87.6642839 C45.3945671,87.8238321 44.4372777,87.507746 44.2265536,87.140484 C43.5191227,85.9032326 42.8147022,84.6629708 42.1102817,83.4257194 C41.9687955,83.1788711 41.8212887,82.9350333 41.544337,82.7212988 C41.448006,83.6815986 41.3486646,84.6449087 41.2523336,85.6052085 C41.2192198,85.9363464 41.159013,86.2644739 41.1560026,86.5956117 C41.1560026,87.0561944 40.9573199,87.1826288 40.5057683,87.1615564 C39.042741,87.0923185 39.3166823,86.8996565 39.4250547,85.9152739 C39.6448099,83.9374779 39.8374719,81.9566714 40.0060512,79.9728546 C40.0512063,79.4430341 40.2769821,79.337672 40.7556268,79.3587444 C41.4540267,79.3888479 41.9326714,79.608603 42.2848817,80.2829201 C43.0043539,81.664668 43.8261778,82.9922298 44.6088673,84.340864 C44.6480018,84.3318329 44.6871363,84.3228019 44.7262707,84.3137709 L44.7202501,84.3107605 Z" id="Path"></path>
                <path d="M12.1362852,35.0826031 C12.0971508,35.2120479 12.0429646,35.3986892 11.985768,35.5853305 C9.68285479,43.0178702 9.68586513,50.4504098 12.0098508,57.8769288 C12.2506783,58.6445665 12.169399,59.0238699 11.7208578,59.1804078 C11.2783372,59.3339353 10.962251,59.059994 10.7274442,58.2923563 C9.66780307,54.8635743 9.04767218,51.3655544 8.94532048,47.7681932 C8.82189637,43.4724321 9.43299622,39.2910641 10.6973408,35.1969961 C10.7665787,34.9742307 10.8237752,34.7424342 10.9833234,34.5618135 C11.1850165,34.3330274 11.4378854,34.2667998 11.7238681,34.3751722 C11.9887784,34.4745135 12.1453163,34.7213618 12.1362852,35.0826031 Z" id="Path"></path>
                <path d="M84.5079683,46.7205934 C84.5230201,50.5557719 83.9269719,54.30064 82.8041136,57.9642288 C82.746917,58.1478597 82.6776791,58.3375114 82.5723171,58.4970597 C82.3886861,58.771001 82.1117344,58.858301 81.801669,58.7408975 C81.5096656,58.6325251 81.3651691,58.3886873 81.4103242,58.0936735 C81.4675208,57.7294219 81.5758932,57.371191 81.6812552,57.0189807 C82.8011032,53.2229368 83.2857686,49.3426032 83.1472928,45.3930317 C83.0359101,42.1599221 82.4940481,38.9900297 81.5427794,35.895396 C81.3139932,35.151841 81.4073139,34.7815687 81.8408034,34.6430928 C82.2983758,34.4985963 82.6144619,34.7875893 82.8402377,35.528134 C83.9420236,39.1766711 84.5290408,42.9034771 84.5109787,46.7205934 L84.5079683,46.7205934 Z" id="Path"></path>
                <path d="M69.7633028,18.8116931 C69.2756271,19.3655964 68.7728996,19.9074583 68.3032859,20.4764134 C68.059448,20.7744374 67.8758171,20.7774478 67.5838137,20.5305996 C66.6265242,19.7087756 66.6024415,19.7057653 67.4272758,18.7514862 C68.7157031,17.2583555 70.0372441,15.7953283 71.3226611,14.2991872 C71.6417576,13.9289149 71.8855954,13.9168735 72.2287747,14.245001 C72.7766573,14.7718113 73.3727054,15.250456 73.911557,15.7862972 C74.6701637,16.5418936 74.8628258,17.4751003 74.4865328,18.3029449 C74.0590639,19.2421723 73.1108055,19.8743445 72.1083609,19.7990859 C71.6267058,19.7629618 71.5032817,19.9345514 71.4611369,20.368041 C71.3768473,21.2410408 71.2413818,22.1110302 71.1269887,22.9810197 C71.1089266,23.1134748 71.1239784,23.2790438 70.9885129,23.3482817 C70.8048819,23.4446127 70.7205923,23.2489403 70.5971681,23.1706714 C69.7181477,22.6137577 69.335834,21.8942855 69.6549304,20.8165823 C69.8415718,20.1964514 69.8385614,19.5221343 69.9228511,18.8688896 L69.7633028,18.8086827 L69.7633028,18.8116931 Z M72.0060092,18.0952312 C72.0060092,18.0952312 72.0933092,18.0952312 72.1655574,18.0771691 C72.5418504,17.9778277 72.782678,17.7249588 72.8157918,17.3486658 C72.8549262,16.8790521 72.590016,16.5027591 72.2137229,16.2980557 C71.8825851,16.1174351 71.8163575,16.562966 71.6267058,16.7225142 C71.4370542,16.8820625 71.2835266,17.0897762 71.1149473,17.2764176 C70.9584094,17.4510175 70.9403474,17.6105658 71.1480611,17.7640933 C71.3858783,17.9386933 71.6236955,18.0982415 72.0029988,18.0982415 L72.0060092,18.0952312 Z" id="Shape"></path>
                <path d="M71.7079851,75.4573385 C72.1926505,75.987159 72.6682849,76.529021 73.1710124,77.0407795 C73.4780675,77.3538553 73.5232226,77.5886621 73.168002,77.9047482 C72.1414747,78.8229032 72.3823022,78.8710687 71.4701679,77.8535724 C70.1696993,76.4025865 68.8571892,74.9576213 67.5085551,73.5457699 C67.0840965,73.1032494 67.1111896,72.8503804 67.577793,72.4891392 C68.1316963,72.0586599 68.6073307,71.5348601 69.1491926,71.0893291 C69.9168304,70.4601672 70.7868198,70.2103086 71.6989541,70.7310982 C72.6411918,71.2699498 73.14994,72.1218772 72.9903917,73.2176424 C72.9061021,73.7896078 73.1198365,73.9250733 73.5894502,74.0214043 C74.4112741,74.1899836 75.2210567,74.4097387 76.03686,74.6024007 C76.4522875,74.7017421 76.4703495,74.8071041 76.1813565,75.1623247 C75.485967,76.0262935 74.7032775,76.2129348 73.6767502,75.8095487 C73.071671,75.5717315 72.406385,75.4844316 71.7651817,75.3278937 C71.7441093,75.3700385 71.7230368,75.4151936 71.7049748,75.4573385 L71.7079851,75.4573385 Z M71.3106197,73.1604459 C71.2684749,72.7841529 71.0878542,72.4951598 70.7386543,72.3386219 C70.3924647,72.1820841 69.537527,72.5433253 69.4803305,72.8533908 C69.4442063,73.0520735 70.4617027,74.1659008 70.6603854,74.1357974 C70.7145716,74.1267664 70.7717681,74.0936526 70.8139129,74.0575284 C71.0788232,73.8136906 71.2775059,73.5337286 71.3106197,73.1604459 L71.3106197,73.1604459 Z" id="Shape"></path>
                <path d="M68.9143858,79.6266651 C68.9143858,80.9181027 67.945055,82.0469817 66.4639657,82.486492 C65.2538073,82.8477333 63.9894628,82.3841403 63.3211664,81.279344 C62.5234252,79.9608133 61.7708392,78.6121791 60.982129,77.2876277 C60.7864566,76.9595002 60.8406428,76.7698485 61.16576,76.5832072 C62.4752597,75.8306211 62.1591736,75.8246004 62.8696148,76.9986346 C63.4867353,78.016131 64.043649,79.0727618 64.6788316,80.0782167 C65.2568177,80.9933613 66.3164588,80.990351 66.8854138,80.1203615 C67.2285931,79.5965616 67.0509828,79.1058755 66.7800518,78.6332515 C66.2171174,77.648869 65.6391314,76.6765278 65.076197,75.6951556 C64.4018799,74.5211214 64.3296317,74.761949 65.5999969,74.0123733 C65.8739382,73.852825 66.0605795,73.8769078 66.2231381,74.1628905 C67.0028173,75.514535 67.8035688,76.8571485 68.5712065,78.217824 C68.8120341,78.6452929 68.9204065,79.1269479 68.9083651,79.6296754 L68.9143858,79.6266651 Z" id="Path"></path>
                <path d="M61.1115738,14.8259974 C61.0814704,14.419601 61.1808117,13.9680494 61.4126082,13.5466012 C62.1471322,12.2130188 62.8846665,10.8824466 63.6041387,9.53983317 C63.8028215,9.16956084 64.0255869,9.15149878 64.3597351,9.34717114 C65.6120383,10.0816951 65.4765728,9.80474345 64.8594522,10.9456639 C64.3025386,11.9752016 63.7155215,12.9896875 63.1676388,14.0252459 C62.6558803,14.9855457 63.0412044,15.8344627 64.0496697,16.0361558 C64.5915316,16.1445282 65.0792074,15.8525248 65.4795831,15.1390732 C66.0154244,14.1878045 66.5271829,13.2184737 67.0630241,12.2672049 C67.7945378,10.9667363 67.4393172,11.1052121 68.8421375,11.821674 C69.1100581,11.9571395 69.1491926,12.1437808 69.0077064,12.3966497 C68.2189963,13.8115115 67.481462,15.259487 66.6265242,16.6322039 C65.9040417,17.7941968 64.7209764,18.146407 63.4596422,17.7490416 C61.9635012,17.2794279 61.1175945,16.2529006 61.1115738,14.8290078 L61.1115738,14.8259974 Z" id="Path"></path>
                <path d="M54.8741408,86.8394496 C54.3714133,86.9147082 54.2178858,86.6588289 54.1245651,86.4089704 C53.8295514,85.6383223 53.3087618,85.3944844 52.5320931,85.6353119 C52.4026483,85.6744464 52.2641724,85.7075602 52.1287069,85.7015395 C51.1955003,85.6774568 50.5693487,85.9784912 50.4971004,87.0411426 C50.457966,87.6221391 49.8950316,87.5047356 49.5247593,87.5709632 C48.6698215,87.7214804 48.6306871,87.6672942 48.8353905,86.8364392 C49.3772524,84.638888 49.9281454,82.4443472 50.4639866,80.246796 C50.563328,79.8373892 50.6897624,79.5273237 51.1924899,79.4821686 C51.6801657,79.4370134 52.0474276,79.4008893 52.3484621,79.9517822 C53.4773411,82.0018266 54.6754581,84.0157468 55.8434716,86.0447187 C56.1595577,86.5926014 56.1204232,86.66786 55.47922,86.764191 C55.2293614,86.8003151 54.9764925,86.8274082 54.8741408,86.8394496 Z M51.7072588,82.2727576 C51.595876,82.7122678 51.5176071,83.0133022 51.4423485,83.3143366 C51.1924899,84.3288226 51.2858106,84.4131122 52.3093276,84.1361606 C52.619393,84.0518709 52.6826103,83.9073744 52.514031,83.6364434 C52.2611621,83.2270366 52.0203346,82.8085988 51.7042484,82.2757679 L51.7072588,82.2727576 Z" id="Shape"></path>
                <path d="M79.4295178,22.0056682 C79.8870901,22.0207199 79.9623487,22.4843129 80.2091969,22.7582542 C80.4440038,23.0171438 80.3175693,23.254961 80.1640418,23.4987989 C79.0742972,25.2357674 77.9905733,26.972736 76.9068494,28.7097046 C76.7111771,29.0227803 76.4974426,29.3298354 76.3228427,29.657963 C76.0820151,30.1095146 75.86226,30.0583387 75.6274532,29.6639836 C75.5883187,29.5977561 75.5341325,29.5375492 75.4889773,29.474332 C74.8507844,28.5953115 74.8507844,28.7789425 75.4287705,27.9209944 C75.7117428,27.4995462 75.7388359,27.1774394 75.398667,26.7830843 C75.0554878,26.3857189 74.7544534,25.9462086 74.4775017,25.5006777 C74.2547363,25.1484675 74.0108984,25.0611675 73.6014916,25.1665295 C72.4876643,25.4525122 72.4936849,25.4254191 71.8374299,24.4350159 C71.6056334,24.0828056 71.6658403,23.9292781 72.0662161,23.8329471 C73.2613227,23.543954 74.453419,23.2399093 75.6455152,22.9418852 C76.7442908,22.6679439 77.8430665,22.3940026 78.9418421,22.1230716 C79.0923593,22.0869475 79.2458868,22.0538337 79.4355385,22.0086785 L79.4295178,22.0056682 Z M77.2801321,24.2543952 C76.9128701,24.3507263 76.500453,24.4560883 76.0880358,24.5644607 C75.8893531,24.6156365 75.8291462,24.742071 75.9465497,24.9076399 C76.1572737,25.2086743 76.334884,25.660226 76.6178564,25.7445156 C76.9098598,25.8318156 77.0001701,25.301995 77.1988528,25.0581571 C77.3313079,24.8925882 77.4306493,24.6999262 77.5299907,24.5132848 C77.6413734,24.3025608 77.542032,24.2303125 77.2831424,24.2543952 L77.2801321,24.2543952 Z" id="Shape"></path>
                <path d="M53.9981306,13.8205425 C53.721179,13.7904391 53.528517,13.7603356 53.3328446,13.7543149 C52.8602206,13.7332425 52.5621965,13.5315495 52.505,13.0348427 C52.4237207,12.3304222 52.0654897,11.9450981 51.3129037,12.0022947 C51.1413141,12.014336 50.9606934,11.9752016 50.7951245,11.9270361 C49.8649282,11.6651361 49.163518,11.8427464 48.8444215,12.8632531 C48.7511008,13.1612771 48.4982319,13.1642875 48.2182699,13.1341841 C46.8937185,12.9987186 46.8846875,13.0017289 47.4987977,11.8638188 C48.516294,9.97633307 49.5548627,8.10088868 50.5663383,6.21039257 C50.7891038,5.79496508 51.0570244,5.60832374 51.5416898,5.68659269 C51.9962518,5.76185129 52.3063172,5.87323402 52.4447931,6.40907528 C53.0378309,8.69091612 53.6820445,10.9607156 54.3142168,13.2335254 C54.4135581,13.5947667 54.5038685,13.9289149 53.9981306,13.8235529 L53.9981306,13.8205425 Z M51.3098933,8.68188509 C51.2587175,8.67285406 51.210552,8.66382303 51.1593761,8.654792 C50.9576831,9.02205398 50.7740521,9.40135734 50.554297,9.75958829 C50.3134694,10.1479227 50.283366,10.3947709 50.852321,10.3857399 C50.9667141,10.3857399 51.0811072,10.421864 51.1955003,10.4399261 C51.6621036,10.5242157 51.7975691,10.3496157 51.6500622,9.89806412 C51.5176071,9.49768835 51.4212761,9.0852712 51.3098933,8.67887475 L51.3098933,8.68188509 Z" id="Shape"></path>
                <path d="M74.5136258,65.1348685 C75.0765602,65.2643133 75.6455152,65.3967684 76.2174806,65.5232028 C78.0628216,65.9326096 79.9111729,66.3390061 81.7565138,66.7514233 C82.3856757,66.8929094 82.4187895,66.9771991 82.0334655,67.5009989 C81.3350656,68.4492573 81.6601828,68.4673194 80.3476728,68.1602643 C79.9653591,68.069954 79.7335626,68.1361815 79.5228385,68.4763504 C79.2187937,68.9760676 78.8786248,69.4517019 78.5234042,69.9183053 C78.285587,70.2343914 78.3126801,70.4902707 78.5203939,70.8153878 C79.1465455,71.79676 79.125473,71.79676 78.3939594,72.7570598 C78.1651733,73.0580942 77.996594,73.091208 77.7858699,72.7570598 C77.5269803,72.3446426 77.2590597,71.9352358 76.9911391,71.5288394 C75.9194566,69.9002432 74.8447637,68.271647 73.7700708,66.6430509 C73.613533,66.4052337 73.4660261,66.1644061 73.6918019,65.8994959 C73.9326294,65.6195339 74.0199294,65.1709926 74.5106155,65.1288478 L74.5136258,65.1348685 Z M76.7232184,67.3565024 C76.4432564,67.3324197 76.2746772,67.3835955 76.4492771,67.6665679 C76.6630116,68.0127574 76.8917977,68.3469056 77.1235942,68.6810538 C77.1988528,68.7924366 77.3072252,68.9399434 77.4396803,68.7773848 C77.6684665,68.4914022 77.8822009,68.1903677 78.0748629,67.877292 C78.1862457,67.693661 78.0026147,67.6454955 77.8761802,67.615392 C77.4818252,67.519061 77.0844597,67.4347714 76.7232184,67.3565024 L76.7232184,67.3565024 Z" id="Shape"></path>
                <path d="M13.3042988,69.4938467 C13.2952677,69.0754089 13.3885884,68.6750331 13.5812504,68.3077712 C14.4512399,66.6460612 15.8359982,65.6707097 17.6813391,65.4509546 C19.3581008,65.2522719 20.7819936,66.7785163 20.6073936,68.4763504 C20.3936592,70.5504775 17.3833151,72.6607288 15.3724052,72.1459599 C14.1321434,71.8268634 13.2952677,70.7551809 13.3042988,69.4938467 L13.3042988,69.4938467 Z M14.9660087,69.5992088 C14.9629984,70.318681 15.5169017,70.7371189 16.3026015,70.5384362 C17.3471909,70.2705155 18.1599838,69.6413536 18.7439906,68.7412607 C19.0028802,68.3408849 19.0570664,67.886323 18.7530216,67.4769162 C18.4429562,67.0584784 17.9853839,67.0283749 17.5308219,67.1608301 C16.5645015,67.4438024 15.772781,67.9886747 15.1947949,68.8285607 C15.0352466,69.0633675 14.9660087,69.3222571 14.9629984,69.6022191 L14.9660087,69.5992088 Z" id="Shape"></path>
                <path d="M19.6952593,25.7806397 C19.6952593,27.3971945 18.56337,28.547146 17.0190634,28.5682184 C15.0683604,28.5923011 12.8467265,26.8523222 12.4644128,24.9979502 C12.1212335,23.3362403 13.5752297,21.6022821 15.2640328,21.7708613 C17.0883013,21.9544923 18.4519872,22.9418852 19.3972353,24.4952228 C19.6440835,24.9016192 19.7193421,25.3682226 19.6952593,25.7806397 Z M16.9829393,26.8884464 C17.8529287,26.9095188 18.3135114,26.3074499 18.021508,25.5307812 C17.654246,24.5524193 16.1310119,23.4957885 15.0894328,23.4987925 C14.2796503,23.4987925 13.8551917,24.1309711 14.1502055,24.8835572 C14.5174675,25.8167638 16.0015671,26.8673739 16.9829393,26.8914567 L16.9829393,26.8884464 Z" id="Shape"></path>
                <path d="M20.0053248,16.3161133 C20.0986455,16.3311695 20.3605454,16.3311695 20.5953522,16.4094385 C22.2841553,16.9723728 23.4220654,18.137376 23.9970411,19.7870446 C24.3703238,20.8557167 24.1294962,21.873213 23.2685378,22.6829956 C22.4256415,23.4777265 21.4081452,23.640285 20.3846281,23.2278679 C18.6928148,22.5445198 17.539853,21.3072683 17.172591,19.4799895 C16.8414531,17.8182795 18.1479425,16.3131074 20.0053248,16.3161133 L20.0053248,16.3161133 Z M22.4707966,20.7924995 C22.4888587,19.7178067 20.9234797,18.059107 19.8367455,17.9989002 C19.0992112,17.9597657 18.5874527,18.5317311 18.8011871,19.248193 C19.1383457,20.3740617 19.9089938,21.1537408 20.9626142,21.6534579 C21.1311935,21.7317269 21.3419176,21.7407579 21.5345796,21.7407579 C22.1547105,21.7407579 22.4587553,21.4216614 22.4707966,20.7955098 L22.4707966,20.7924995 Z" id="Shape"></path>
                <path d="M18.21417,74.9094558 C18.21417,72.8654322 20.4779488,70.5354258 22.5039104,70.4993017 C24.2258273,70.4691982 25.5865028,72.2091771 25.1198995,73.9371147 C24.6623271,75.6229074 23.5424791,76.8210243 21.9379657,77.4531966 C20.0896144,78.1786895 18.2171804,76.8481174 18.2171804,74.9094558 L18.21417,74.9094558 Z M20.8090867,75.9811383 C21.9831209,75.9992004 23.6598826,74.1357974 23.5123757,72.9768149 C23.4341067,72.3687254 22.8982655,72.0345772 22.2600725,72.1911151 C21.266659,72.4379633 20.0023144,73.8468044 19.866849,74.8612903 C19.779549,75.514535 20.1618627,75.9721073 20.8090867,75.9811383 Z" id="Shape"></path>
                <path d="M60.7533429,9.76259863 C60.4763912,9.67228831 60.1904085,9.59401936 59.9194775,9.48263663 C59.5371638,9.32609873 59.3595535,9.45253319 59.2391398,9.83484689 C58.760495,11.3610914 58.2427159,12.8752945 57.7731022,14.4045493 C57.622585,14.8982457 57.3998195,15.0005974 56.9211748,14.8259974 C55.7110164,14.3834769 55.8193888,14.5851699 56.1986922,13.3990943 C56.6382024,12.0233671 57.0777127,10.6476398 57.5413057,9.28094357 C57.6707505,8.89561953 57.6075332,8.68790578 57.1981264,8.60963683 C57.0837334,8.58856442 56.975361,8.54039892 56.8639782,8.50126444 C56.3201094,8.3206438 56.1394888,7.95338181 56.3221163,7.3994785 C56.6020783,6.54454076 56.6050887,6.54153042 57.457016,6.81547174 C58.646102,7.20079578 59.8231465,7.61923362 61.0212635,7.97144388 C61.5390427,8.12497143 61.6263427,8.36579896 61.4216393,8.81735058 C61.3162772,9.04613673 61.2560703,9.29599529 61.1687703,9.53381248 C61.0995324,9.72948485 60.9610566,9.80775379 60.7533429,9.7535676 L60.7533429,9.76259863 Z" id="Path"></path>
                <path d="M60.6238981,84.822519 C60.6479808,84.9941086 60.6028257,85.09345 60.4884326,85.1566672 C60.4372567,85.1837603 60.3860809,85.2138638 60.3288843,85.2319258 C58.7996295,85.749705 59.0976536,85.8249636 58.6190089,84.5094432 C58.1463848,83.2059642 57.6948332,81.8964645 57.264354,80.5779338 C57.1258782,80.1534753 56.9723506,80.0330615 56.5177887,80.2016408 C55.3708476,80.6291097 55.1992579,80.5026752 54.9644511,79.2804755 C54.9132753,79.0125549 55.0035856,78.8680584 55.2383924,78.7867791 C56.6412128,78.2991033 58.0410228,77.8144379 59.4438432,77.3267622 C59.6997224,77.2364518 59.8592707,77.3267622 59.9465706,77.5706 C60.045912,77.8445413 60.133212,78.1275137 60.247605,78.3954343 C60.3860809,78.7235618 60.2656671,78.8861204 59.9525913,79.0215859 C58.7966192,79.521303 58.7966192,79.5333444 59.2000053,80.7133993 C59.6304845,81.9687128 60.0669844,83.2240263 60.5004739,84.4763295 C60.5456291,84.6057743 60.5907843,84.735219 60.6208877,84.8255294 L60.6238981,84.822519 Z" id="Path"></path>
                <path d="M83.2616859,64.5057065 C83.1593342,64.4665721 83.0298894,64.4274376 82.9034549,64.3732514 C80.8985657,63.5032619 78.8996972,62.6272518 76.8887874,61.7723141 C76.5034633,61.6097555 76.3890702,61.4381659 76.5757116,61.0257487 C77.1868114,59.6741042 76.9550149,59.8697766 78.2223698,60.3935765 C79.5198281,60.9324281 80.8022347,61.5013831 82.081631,62.0793692 C82.4278206,62.2359071 82.6174722,62.1847312 82.7529377,61.8265003 C82.8974342,61.4441866 83.0900963,61.0799349 83.2376031,60.6976212 C83.3670479,60.3574523 83.5446582,60.2400489 83.9028892,60.4056178 C85.2304509,61.019728 85.1852958,60.739766 84.601289,62.0613071 C84.3002546,62.7386345 84.0172822,63.4219826 83.7192582,64.1023204 C83.6349685,64.2949824 83.5657306,64.5177479 83.2556652,64.5057065 L83.2616859,64.5057065 Z" id="Path"></path>
                <path d="M78.2133388,34.6942687 C77.9424078,34.70631 77.8791906,34.5527825 77.8159734,34.4112963 C77.3794735,33.4540069 76.9489942,32.4906968 76.509484,31.5364177 C76.3740185,31.241404 76.4492771,31.0698143 76.7412805,30.9373592 C78.8184179,29.9951215 80.8955554,29.0498734 82.9696825,28.0986047 C83.2526548,27.9691599 83.4182238,28.0022737 83.5747617,28.3002978 C84.1918822,29.483363 84.2039236,29.483363 82.9997859,30.043287 C81.8317724,30.5851489 80.6607486,31.1149695 79.4867143,31.6417797 C78.6799421,32.003021 78.6799421,32.0000107 79.0441938,32.7736691 C79.1104213,32.9151553 79.194711,33.0506208 79.2398661,33.1981276 C79.3241558,33.4841103 79.6733557,33.7881551 79.4355385,34.050055 C79.1104213,34.408286 78.5926421,34.5106377 78.2163491,34.6912583 L78.2133388,34.6942687 Z" id="Path"></path>
                <path d="M15.5289431,59.7614042 C15.8901844,59.6891559 16.0196292,59.794518 16.1009085,59.9661076 C16.3628084,60.5109799 16.6156773,61.0588625 16.8805876,61.6007245 C17.0431462,61.9318623 16.8294117,62.0582968 16.5885842,62.1757002 C15.5710879,62.6663863 14.5535916,63.154062 13.5330849,63.6447481 C12.6028886,64.090279 11.6636612,64.5237686 10.7455063,64.9903719 C10.3782443,65.1770133 10.1946133,65.0987443 10.0230237,64.737503 C9.37579969,63.3768275 9.42396519,63.6597998 10.5588649,63.1119172 C11.8382612,62.4947967 13.1146471,61.8656347 14.4030744,61.2665763 C14.7944191,61.0859556 14.9750398,60.8993143 14.7010984,60.4838868 C14.4723123,60.1346869 14.6168088,59.9540662 14.9991225,59.8878386 C15.2279087,59.8487042 15.4536845,59.7794663 15.5289431,59.7614042 L15.5289431,59.7614042 Z" id="Path"></path>
                <path d="M16.2935705,32.3221175 C16.1370326,32.6351933 15.965443,33.0536311 15.7246154,33.4269138 C15.5710879,33.664731 15.3302604,33.4750793 15.143619,33.3938 C13.6655401,32.7315243 12.1874611,32.0722589 10.7214235,31.3859005 C10.3270684,31.2022695 10.0832306,31.1811971 9.93873404,31.6628521 C9.82133062,32.0602176 9.58351343,32.0331245 9.27645833,31.8133693 C8.46968611,31.241404 8.46366542,31.250435 8.87608256,30.3774352 C9.32763418,29.416132 10.0481099,29.1552355 11.0375096,29.5947457 C12.6570748,30.3202387 14.2706192,31.0547626 15.887174,31.7922969 C16.070805,31.8765866 16.3146429,31.9247521 16.2935705,32.3191072 L16.2935705,32.3221175 Z" id="Path"></path>
                <path d="M28.7684365,83.0403953 C28.8677779,82.022899 29.3404019,81.0535682 30.3338155,80.3882821 C30.950936,79.975865 31.6162221,79.9186685 32.2784978,80.2708787 C32.9437838,80.6260993 33.268901,81.2281681 33.2538493,81.9596818 C33.2237458,83.1608091 32.7270391,84.157233 31.7035221,84.8255294 C31.0713498,85.2379465 30.3759603,85.2831017 29.6986329,84.9068087 C29.0333468,84.5395467 28.7804779,83.9284468 28.7714469,83.0403953 L28.7684365,83.0403953 Z M32.1340013,81.830237 C32.1309909,81.5141508 32.0316496,81.3184785 31.8179151,81.1769923 C31.5650462,81.0114234 31.318198,81.0686199 31.1134946,81.2281681 C30.4030534,81.7820715 30.0568638,82.5557299 29.9003259,83.4166883 C29.8521604,83.6815986 29.9936466,83.9043641 30.2314638,84.0518709 C30.4843327,84.2053985 30.7372016,84.1482019 30.9388946,83.9796227 C31.6192324,83.3986263 31.9443496,82.6189471 32.1370116,81.8332473 L32.1340013,81.830237 Z" id="Shape"></path>
                <path d="M22.8802034,13.0047393 C22.8922448,12.2401118 23.1932792,11.6470741 23.8886687,11.2858328 C24.6051306,10.9155604 25.2944994,10.9968397 25.9266717,11.4574224 C26.8117129,12.1046464 27.3023989,12.9987186 27.3927093,14.0794321 C27.4559265,14.8470699 27.1789748,15.5003145 26.4625129,15.8946696 C25.7641131,16.2799937 25.0687236,16.2318282 24.4064479,15.828442 C23.5424791,15.3016318 22.8651517,14.0162149 22.8832138,13.0017289 L22.8802034,13.0047393 Z M26.2728613,14.341332 C26.0832096,13.6007874 25.7520717,12.8090669 25.0566822,12.2551636 C24.5900789,11.8818809 24.0452066,12.1528119 24.0060721,12.7277876 C23.960917,13.3689909 24.7405961,14.7718113 25.3005201,15.0517733 C25.7851855,15.2956111 26.2698509,14.9975871 26.2758716,14.341332 L26.2728613,14.341332 Z" id="Shape"></path>
                <path d="M29.8250673,14.0101942 C29.8130259,12.3876187 31.0322153,11.5025775 32.3266633,11.9721912 C33.5609044,12.4177222 34.5181938,14.1787735 34.2231801,15.4641904 C33.9191353,16.7917522 32.5584598,17.3697382 31.3934566,16.6472556 C30.3398362,15.994011 29.927419,14.9735043 29.822057,14.0101942 L29.8250673,14.0101942 Z M33.1274148,15.0337112 C32.9919493,14.3774562 32.6397391,13.7001287 32.0798151,13.1281634 C31.86006,12.9023876 31.6011704,12.7759531 31.2941153,12.9355013 C30.9720084,13.1040806 30.8877188,13.3990943 30.950936,13.7302322 C31.0894119,14.4767975 31.4596842,15.1119801 31.9684323,15.6658835 C32.1881875,15.9037006 32.4832012,15.9368144 32.7782149,15.8314524 C33.0882804,15.7200697 33.1364459,15.452149 33.1274148,15.0307009 L33.1274148,15.0337112 Z" id="Shape"></path>
                <path d="M30.1141009,76.0262935 C30.0327811,77.0046553 29.5721984,77.9890379 28.5727642,78.6392722 C27.3686265,79.4219617 25.8544234,78.7054998 25.6436993,77.2876277 C25.4841511,76.2039038 26.2788819,74.6294938 27.2482128,74.1087043 C28.6209297,73.37117 30.1230914,74.2742732 30.1141009,76.0262935 L30.1141009,76.0262935 Z M26.7334439,77.1882863 C26.7725784,77.5013621 26.8538577,77.754231 27.1398404,77.8836758 C27.4017403,78.0010792 27.6546092,77.946893 27.8502816,77.7662724 C28.4674021,77.1882863 28.8316538,76.4597831 28.9881917,75.6379591 C29.0423779,75.3519764 28.9129331,75.0991075 28.6480228,74.94558 C28.4041849,74.8040938 28.1392746,74.8071041 27.9345712,74.9907351 C27.2783162,75.5897936 26.9050335,76.3484003 26.7334439,77.1882863 Z" id="Shape"></path>
                <path d="M29.2049364,16.9031349 C29.2049364,17.4299451 29.1597813,17.962776 29.2169778,18.4835656 C29.271164,18.9652206 29.0152848,19.151862 28.6510331,19.3114102 C28.4011746,19.4197826 28.2807608,19.3204412 28.2446367,19.0766034 C28.2295849,18.9802723 28.2205539,18.8839413 28.2175436,18.7846 C28.1272332,15.7411421 28.0399333,12.7006945 27.9526333,9.65723659 C27.9496229,9.50069869 27.9315609,9.33512977 27.976716,9.19364359 C28.0820781,8.85648505 28.3831125,8.6758644 28.6871572,8.68188509 C29.0182951,8.68489544 28.9159434,9.03409535 28.9219641,9.2418091 C29.0092641,11.7945809 29.087533,14.3503631 29.1688123,16.9031349 C29.1778433,16.9031349 29.1898847,16.9031349 29.1989157,16.9031349 L29.2049364,16.9031349 Z" id="Path"></path>
                <path d="M34.0636319,76.6404037 C33.9492388,77.010676 33.7204526,77.1100174 33.5338113,77.2424725 C31.7306152,78.5098274 29.9213983,79.7681512 28.1151919,81.0294854 C27.4438851,81.4990991 26.7755887,81.9717231 26.104282,82.4413368 C25.9928993,82.5196058 25.8845269,82.6129264 25.7580924,82.6580816 C25.3878201,82.7815057 25.0747443,82.5858333 24.897134,82.3239334 C24.7315651,82.0831059 25.0687236,81.9807542 25.2252615,81.8723818 C27.7268575,80.1053098 30.2374845,78.3532895 32.7360701,76.5801968 C33.1244045,76.3032452 33.4645734,76.2520693 33.8498974,76.5410623 C33.9281664,76.5982589 34.0275077,76.625352 34.0666422,76.643414 L34.0636319,76.6404037 Z" id="Path"></path>
                <path d="M46.6257979,76.1436969 C30.8214912,76.1436969 17.2448392,63.5032619 17.2448392,46.6965107 C17.2448392,29.6820457 31.1134946,17.1078383 47.038215,17.2312624 C63.1224837,17.3546865 76.2355427,30.5670869 76.1815238,46.8169245 C76.1271703,63.3226413 62.6348079,76.2520693 46.6257979,76.1436969 Z M18.0092755,46.6664073 C17.9522701,62.4556622 30.7402119,75.3128419 46.5384979,75.4097296 C62.1411115,75.505504 75.1247257,63.0878345 75.4317808,47.2564347 C75.7448566,31.1872178 62.8846665,18.0952312 46.8967289,17.9868588 C31.0231843,17.8814967 17.9823735,30.7236248 18.012477,46.6633969 L18.0092755,46.6664073 Z" id="Shape"></path>
                <path d="M59.2361294,49.4359238 C57.3576747,49.3787273 55.5514682,49.7188962 53.7723548,50.417296 C53.7031169,50.1132513 53.8867479,49.9687548 54.0041513,49.8122169 C55.0276683,48.4304689 56.0842991,47.0788244 57.2342506,45.7994281 C57.6707505,45.3117524 58.27884,45.1341421 58.8508054,44.8872939 C59.1367881,44.7638698 59.4348121,44.6675388 59.8231465,44.5230422 C59.4498639,44.4477836 59.1879639,44.538094 58.9230536,44.5832491 C58.7905985,44.6073319 58.6159985,44.6795801 58.5347192,44.5621767 C58.4173158,44.3935974 58.6009468,44.2792044 58.7032985,44.1768527 C59.6304845,43.252677 60.5426188,42.3134496 61.4938875,41.4193774 C62.6739424,40.3115708 63.8871111,39.2428986 65.067166,38.135092 C58.9953019,41.7896498 53.6700031,46.2329177 49.9733005,52.455299 C49.8829902,50.417296 49.5518524,48.4756241 48.8955974,46.5911486 C48.970856,47.346745 49.0491249,48.1023414 49.1243835,48.8579378 C49.2899524,50.513627 49.26888,52.1693163 49.0912697,53.8250056 C49.0611663,54.0989469 48.9979491,54.3638572 48.8685043,54.6107054 C47.5499735,57.1454151 46.4963531,59.7915076 45.6022809,62.5038277 C45.5601361,62.6302621 45.5390637,62.7747587 45.3885464,62.8349655 C45.2380292,62.777769 45.2169568,62.6332725 45.174812,62.506838 C44.1813985,59.6259387 43.5432055,56.6727911 43.5733089,53.6172918 C43.6395365,46.5670659 46.845553,41.3501395 52.9565516,37.9032955 C56.6683059,35.808096 60.7202291,34.7604962 64.9015971,34.137355 C66.9697035,33.8302999 69.0528616,33.6767724 71.1390301,33.5653896 C71.2744956,33.5593689 71.4129714,33.5533482 71.5484369,33.5593689 C71.6778817,33.5653896 71.8615127,33.5051827 71.9187092,33.6526896 C71.9969782,33.857393 71.7742127,33.8995378 71.6568093,33.9778068 C70.1696993,34.9862721 69.0498513,36.3198545 68.1497584,37.85513 C67.1142,39.6161813 66.4037588,41.5187188 65.7595451,43.445339 C64.9166488,45.9619867 64.1821248,48.5177689 63.1586078,50.9711994 C62.1621839,53.3644229 60.9279428,55.6161603 59.1699018,57.5488013 C56.4846749,60.5019488 53.0859964,62.1877416 49.2628593,63.1119172 C48.883556,63.2022275 48.5012423,63.2804965 48.1189286,63.3617758 C47.7877907,63.4310137 47.6342632,63.3437137 47.7305942,62.9644103 C48.0858148,61.56159 48.4831802,60.170811 49.0611663,58.8462596 C49.35618,58.1719425 50.0003936,57.7625357 50.5573073,57.3049634 C51.3821416,56.6306463 52.3093276,56.1038361 53.2214619,55.5559535 C52.2280483,55.796781 51.315914,56.2212395 50.4489349,56.7450394 C50.3104591,56.829329 50.1479005,57.0340324 49.9883523,56.8955566 C49.828804,56.7570808 50.0094247,56.5704394 50.0786626,56.4229326 C50.6355763,55.236857 51.2346347,54.0748641 51.9360449,52.9700678 C52.4568344,52.1512542 53.3268239,51.7328164 54.1335961,51.2632027 C54.9253166,50.8026201 55.7652026,50.4263271 56.6442231,50.1493754 C57.4991609,49.8784444 58.3721607,49.673741 59.2391398,49.4419445 L59.2361294,49.4359238 Z" id="Path"></path>
                <path d="M42.8718988,58.5482355 C42.4594816,58.0184149 42.1163024,57.4404289 41.6466887,56.9979083 C40.4696441,55.884081 40.0632477,54.4330951 39.7351202,52.9369541 C39.5334271,52.0218095 39.3798996,51.0976338 39.2895892,50.1644271 C39.1541238,51.6003613 39.2835686,53.0212437 39.5695513,54.493302 C35.7223315,50.6551132 31.0803808,48.2588793 25.9688165,46.6754383 C27.9195195,47.7621725 29.9063466,48.7856895 31.7577083,50.0620754 C31.5620359,50.3420374 31.2971256,50.1614168 31.0562981,50.3510685 C33.3923251,50.495565 34.6566696,52.2927404 36.3123589,53.5360125 C34.8854558,53.5390229 33.4826354,53.5360125 32.1069082,53.9273573 C35.5989074,53.6925504 38.5881791,54.511364 40.4004062,57.8829495 C39.5424582,57.6993185 38.7206342,57.3922634 37.8446241,57.4163461 C38.7206342,57.6872771 39.584603,57.9762701 40.4094373,58.3826666 C41.0446199,58.6987527 41.544337,59.1171906 41.8905266,59.7373214 C42.2607989,60.4026075 42.664185,61.0498315 43.0525194,61.7030762 C43.2963573,62.112483 43.2030366,62.2900933 42.7063298,62.3111657 C37.5586414,62.5339311 33.3050251,60.7728798 30.0869673,56.6697808 C28.6600641,54.8515329 27.5010817,52.8616955 26.2698509,50.9140028 C25.1409719,49.1318791 23.9940308,47.3617967 22.3232898,46.0101522 C21.5285589,45.3659386 20.6374971,44.8963249 19.6380628,44.5110009 C19.8457766,44.2280285 20.1167075,44.258132 20.339473,44.2099664 C22.8862241,43.6741252 25.4630787,43.3279356 28.064016,43.3218079 C31.8389875,43.3128839 35.5025763,43.8728079 38.7868618,45.9258626 C40.3311683,46.8921831 41.6105646,48.1324448 42.6130092,49.6616997 C42.7936298,49.9386513 42.8538367,50.2035616 42.8086815,50.5407201 C42.4865747,53.015223 42.5437712,55.4837052 42.9622091,57.9431563 C42.9923125,58.123777 43.0856332,58.316439 42.8779194,58.5452252 L42.8718988,58.5482355 Z" id="Path"></path>
            </g>
        </g>
    </g>
</svg>