<?xml version="1.0" encoding="UTF-8"?>
<svg width="255px" height="65px" viewBox="0 0 255 65" version="1.1" xmlns="http://www.w3.org/2000/svg" xmlns:xlink="http://www.w3.org/1999/xlink">
    <title>logo-alterfood-black</title>
    <g id="Page-1" stroke="none" stroke-width="1" fill="none" fill-rule="evenodd">
        <g id="homepage" transform="translate(-733.000000, -4421.000000)" fill="#000000" fill-rule="nonzero">
            <g id="logo-alterfood-black" transform="translate(733.000000, 4421.500000)">
                <g id="Group">
                    <path d="M20.2362385,30.4649446 L9.7087156,30.4649446 L7.48623853,38.1402214 L1.66227888e-14,38.1402214 L11.9311927,0.354243542 L17.896789,0.354243542 L29.8279817,38.1402214 L22.3417431,38.1402214 L20.2362385,30.4649446 Z M18.5986239,24.4428044 L15.0894495,11.6900369 L11.5802752,24.4428044 L18.5986239,24.4428044 Z" id="Shape"></path>
                    <path d="M60.1238532,33.8892989 C58.3692661,36.3690037 55.0940367,38.6125461 50.766055,38.6125461 C43.162844,38.6125461 39.1857798,34.0073801 39.1857798,25.0332103 L39.1857798,6.84870849 L27.2545872,6.84870849 L27.2545872,0.472324723 L46.087156,0.472324723 L46.087156,25.7416974 C46.087156,30.2287823 47.8417431,32.2361624 50.6490826,32.2361624 C52.5206422,32.2361624 53.690367,31.4095941 54.6261468,30.1107011 L60.1238532,33.8892989 Z" id="Path"></path>
                    <path d="M70.7683486,18.8929889 L70.7683486,27.7490775 C70.7683486,32.5904059 76.1490826,33.0627306 79.3073394,31.4095941 L81.8807339,36.7232472 C80.1261468,37.904059 78.1376147,38.6125461 74.3944954,38.6125461 C67.7270642,38.6125461 63.983945,33.6531365 63.983945,27.3948339 L63.983945,18.8929889 L57.1995413,18.8929889 L57.1995413,12.398524 L63.983945,12.398524 L63.983945,3.42435424 L70.7683486,1.29889299 L70.7683486,12.5166052 L81.8807339,12.5166052 L81.8807339,18.8929889 L70.7683486,18.8929889 Z" id="Path"></path>
                    <path d="M110.655963,27.8671587 L93.3440367,27.8671587 C94.0458716,30.3468635 96.0344037,32.1180812 99.309633,32.1180812 C101.649083,32.1180812 103.637615,30.9372694 104.807339,29.7564576 L109.252294,33.8892989 C107.263761,36.7232472 103.169725,38.6125461 99.309633,38.6125461 C91.3555046,38.6125461 86.3256881,32.7084871 86.3256881,25.2693727 C86.3256881,17.8302583 91.0045872,11.9261993 99.0756881,11.9261993 C103.754587,11.9261993 111.006881,14.7601476 111.006881,24.797048 C110.889908,25.8597786 110.772936,26.804428 110.655963,27.8671587 Z M93.2270642,22.7896679 L104.105505,22.7896679 C103.87156,20.6642066 102.116972,18.5387454 98.8417431,18.5387454 C95.6834862,18.4206642 93.9288991,20.1918819 93.2270642,22.7896679 Z" id="Shape"></path>
                    <path d="M139.431193,17.2398524 L133.231651,21.1365314 C132.295872,19.3653137 131.126147,18.6568266 129.488532,18.6568266 C126.447248,18.6568266 124.107798,22.7896679 124.107798,27.6309963 L124.107798,38.1402214 L117.323394,38.1402214 L117.323394,12.5166052 L124.107798,12.5166052 L124.107798,17.1217712 C125.394495,14.1697417 128.318807,12.0442804 131.594037,12.0442804 C135.103211,12.0442804 137.676606,13.9335793 139.431193,17.2398524 Z" id="Path"></path>
                    <path d="M149.958716,12.5166052 L149.958716,11.2177122 C149.958716,4.95940959 153.701835,0 160.369266,0 C164.112385,0 166.100917,0.708487085 167.855505,1.88929889 L165.28211,7.20295203 C162.240826,5.5498155 156.743119,6.02214022 156.743119,10.8634686 L156.743119,12.398524 L167.855505,12.398524 L167.855505,18.8929889 L156.743119,18.8929889 L156.743119,38.2583026 L149.958716,38.2583026 L149.958716,18.8929889 L143.993119,18.8929889 L143.993119,12.398524 L149.958716,12.398524 L149.958716,12.5166052 Z" id="Path"></path>
                    <path d="M196.630734,25.3874539 C196.630734,32.7084871 191.016055,38.7306273 183.880734,38.7306273 C176.277523,38.7306273 171.130734,32.8265683 171.130734,25.3874539 C171.130734,17.9483395 176.043578,12.0442804 183.880734,12.0442804 C191.016055,12.0442804 196.630734,17.9483395 196.630734,25.3874539 Z M189.84633,25.3874539 C189.84633,21.6088561 187.272936,18.5387454 183.880734,18.5387454 C180.488532,18.5387454 177.915138,21.6088561 177.915138,25.3874539 C177.915138,29.1660517 180.488532,32.2361624 183.880734,32.2361624 C187.272936,32.2361624 189.84633,29.1660517 189.84633,25.3874539 Z" id="Shape"></path>
                    <path d="M225.873853,25.3874539 C225.873853,32.7084871 220.259174,38.7306273 213.123853,38.7306273 C205.520642,38.7306273 200.373853,32.8265683 200.373853,25.3874539 C200.373853,17.9483395 205.286697,12.0442804 213.123853,12.0442804 C220.376147,12.0442804 225.873853,17.9483395 225.873853,25.3874539 Z M219.08945,25.3874539 C219.08945,21.6088561 216.516055,18.5387454 213.123853,18.5387454 C209.731651,18.5387454 207.158257,21.6088561 207.158257,25.3874539 C207.158257,29.1660517 209.731651,32.2361624 213.123853,32.2361624 C216.516055,32.2361624 219.08945,29.1660517 219.08945,25.3874539 Z" id="Shape"></path>
                    <path d="M255,0.472324723 L255,38.2583026 L248.215596,38.2583026 L248.215596,35.3062731 C246.811927,37.3136531 244.238532,38.7306273 241.197248,38.7306273 C234.529817,38.7306273 229.5,33.0627306 229.5,25.3874539 C229.5,17.7121771 234.529817,12.0442804 241.197248,12.0442804 C244.238532,12.0442804 246.811927,13.4612546 248.215596,15.3505535 L248.215596,0.472324723 L255,0.472324723 Z M248.215596,25.3874539 C248.215596,21.6088561 245.525229,18.5387454 242.25,18.5387454 C238.974771,18.5387454 236.284404,21.6088561 236.284404,25.3874539 C236.284404,29.1660517 238.974771,32.2361624 242.25,32.2361624 C245.525229,32.2361624 248.215596,29.1660517 248.215596,25.3874539 Z" id="Shape"></path>
                    <path d="M27.6055046,14.6420664 C27.6055046,12.2804428 29.4770642,10.3911439 31.8165138,10.3911439 C34.1559633,10.3911439 36.0275229,12.2804428 36.0275229,14.6420664 C36.0275229,17.00369 34.2729358,18.8929889 31.8165138,18.8929889 C29.4770642,18.8929889 27.6055046,17.1217712 27.6055046,14.6420664 Z" id="Path"></path>
                </g>
                <g id="Group" transform="translate(9.708716, 46.287823)">
                    <path d="M9.24082569,11.5719557 C8.6559633,12.398524 7.60321101,13.1070111 6.08256881,13.1070111 C3.50917431,13.1070111 2.22247706,11.5719557 2.22247706,8.6199262 L2.22247706,2.4797048 L-1.66227888e-14,2.4797048 L-1.66227888e-14,0.354243542 L4.56192661,0.354243542 L4.56192661,8.73800738 C4.56192661,10.2730627 5.14678899,10.9815498 6.08256881,10.9815498 C6.66743119,10.9815498 7.1353211,10.7453875 7.36926606,10.2730627 L9.24082569,11.5719557 Z" id="Path"></path>
                    <polygon id="Path" points="14.1536697 0.354243542 16.3761468 0.354243542 15.5573394 4.36900369 14.1536697 4.36900369"></polygon>
                    <path d="M28.190367,12.9889299 L28.0733945,11.9261993 C27.4885321,12.6346863 26.2018349,13.1070111 25.1490826,13.1070111 C23.1605505,13.1070111 22.1077982,11.8081181 22.1077982,10.2730627 C22.1077982,8.0295203 24.9151376,6.84870849 27.7224771,7.79335793 C27.6055046,6.73062731 27.1376147,6.25830258 25.8509174,6.25830258 C25.0321101,6.25830258 24.3302752,6.49446494 23.8623853,6.73062731 L23.043578,5.07749077 C23.7454128,4.60516605 24.6811927,4.13284133 26.2018349,4.13284133 C28.3073394,4.13284133 30.0619266,5.31365314 30.0619266,8.50184502 L30.0619266,12.8708487 L28.190367,12.9889299 L28.190367,12.9889299 Z M24.3302752,10.2730627 C24.3302752,10.9815498 24.9151376,11.3357934 25.733945,11.3357934 C26.5527523,11.3357934 27.4885321,10.6273063 27.7224771,9.44649446 C25.9678899,8.73800738 24.3302752,9.2103321 24.3302752,10.2730627 Z" id="Shape"></path>
                    <path d="M41.6422018,11.5719557 C41.0573394,12.398524 40.0045872,13.1070111 38.483945,13.1070111 C35.9105505,13.1070111 34.6238532,11.5719557 34.6238532,8.6199262 L34.6238532,2.4797048 L32.4013761,2.4797048 L32.4013761,0.354243542 L36.9633028,0.354243542 L36.9633028,8.73800738 C36.9633028,10.2730627 37.5481651,10.9815498 38.483945,10.9815498 C39.0688073,10.9815498 39.5366972,10.7453875 39.7706422,10.2730627 L41.6422018,11.5719557 Z" id="Path"></path>
                    <path d="M51.7018349,10.8634686 L51.7018349,12.9889299 L44.3325688,12.9889299 L44.3325688,10.8634686 L46.9059633,10.8634686 L46.9059633,6.61254613 L44.6834862,6.61254613 L44.6834862,4.48708487 L49.2454128,4.48708487 L49.2454128,10.9815498 L51.7018349,10.8634686 L51.7018349,10.8634686 Z M46.6720183,1.41697417 C46.6720183,0.590405904 47.2568807,0 48.0756881,0 C48.8944954,0 49.4793578,0.590405904 49.4793578,1.41697417 C49.4793578,2.24354244 48.8944954,2.83394834 48.0756881,2.83394834 C47.2568807,2.83394834 46.6720183,2.24354244 46.6720183,1.41697417 Z" id="Shape"></path>
                    <path d="M63.3990826,7.91143911 L63.3990826,12.9889299 L61.1766055,12.9889299 L61.1766055,7.91143911 C61.1766055,6.49446494 60.8256881,6.37638376 60.4747706,6.37638376 C60.1238532,6.37638376 59.7729358,6.61254613 59.7729358,8.26568266 L59.7729358,12.9889299 L57.5504587,12.9889299 L57.5504587,7.91143911 C57.5504587,6.49446494 57.3165138,6.37638376 56.9655963,6.37638376 C56.6146789,6.37638376 56.146789,6.61254613 56.146789,8.26568266 L56.146789,12.9889299 L53.9243119,12.9889299 L53.9243119,4.36900369 L56.146789,4.36900369 L56.146789,5.31365314 C56.4977064,4.60516605 56.9655963,4.25092251 57.6674312,4.25092251 C58.4862385,4.25092251 59.0711009,4.84132841 59.3050459,5.43173432 C59.6559633,4.72324723 60.2408257,4.25092251 61.1766055,4.25092251 C62.5802752,4.25092251 63.3990826,5.19557196 63.3990826,7.91143911 Z" id="Path"></path>
                    <path d="M73.4587156,9.56457565 L67.6100917,9.56457565 C67.8440367,10.3911439 68.5458716,10.9815498 69.5986239,10.9815498 C70.4174312,10.9815498 71.0022936,10.6273063 71.4701835,10.1549815 L72.9908257,11.5719557 C72.2889908,12.5166052 71.0022936,13.1070111 69.7155963,13.1070111 C67.0252294,13.1070111 65.3876147,11.099631 65.3876147,8.6199262 C65.3876147,6.1402214 66.9082569,4.13284133 69.5986239,4.13284133 C71.1192661,4.13284133 73.5756881,5.07749077 73.5756881,8.38376384 C73.5756881,8.85608856 73.4587156,9.2103321 73.4587156,9.56457565 Z M67.6100917,7.79335793 L71.2362385,7.79335793 C71.1192661,7.08487085 70.5344037,6.37638376 69.4816514,6.37638376 C68.4288991,6.37638376 67.8440367,6.96678967 67.6100917,7.79335793 Z" id="Shape"></path>
                    <path d="M84.103211,8.0295203 L84.103211,12.8708487 L81.8807339,12.8708487 L81.8807339,8.0295203 C81.8807339,6.61254613 81.0619266,6.25830258 80.3600917,6.25830258 C79.6582569,6.25830258 78.8394495,6.84870849 78.8394495,8.26568266 L78.8394495,12.8708487 L76.3830275,12.8708487 L76.3830275,4.25092251 L78.6055046,4.25092251 L78.6055046,5.19557196 C78.956422,4.72324723 79.6582569,4.13284133 80.7110092,4.13284133 C82.5825688,4.25092251 84.103211,5.43173432 84.103211,8.0295203 Z" id="Path"></path>
                    <path d="M91.0045872,6.49446494 L91.0045872,9.44649446 C91.0045872,11.099631 92.7591743,11.2177122 93.8119266,10.6273063 L94.6307339,12.398524 C94.0458716,12.7527675 93.3440367,12.9889299 92.1743119,12.9889299 C89.9518349,12.9889299 88.6651376,11.3357934 88.6651376,9.2103321 L88.6651376,6.37638376 L86.6766055,6.37638376 L86.6766055,4.25092251 L88.6651376,4.25092251 L88.6651376,1.18081181 L90.8876147,0.472324723 L90.8876147,4.25092251 L94.6307339,4.25092251 L94.6307339,6.37638376 L91.0045872,6.49446494 L91.0045872,6.49446494 Z" id="Path"></path>
                    <path d="M103.87156,12.9889299 L103.754587,11.9261993 C103.169725,12.6346863 101.883028,13.1070111 100.830275,13.1070111 C98.8417431,13.1070111 97.7889908,11.8081181 97.7889908,10.2730627 C97.7889908,8.0295203 100.59633,6.84870849 103.40367,7.79335793 C103.286697,6.73062731 102.818807,6.25830258 101.649083,6.25830258 C100.830275,6.25830258 100.12844,6.49446494 99.6605505,6.73062731 L98.8417431,5.07749077 C99.543578,4.60516605 100.479358,4.13284133 102,4.13284133 C104.105505,4.13284133 105.860092,5.31365314 105.860092,8.50184502 L105.860092,12.8708487 L103.87156,12.9889299 L103.87156,12.9889299 Z M100.011468,10.2730627 C100.011468,10.9815498 100.59633,11.3357934 101.415138,11.3357934 C102.233945,11.3357934 103.169725,10.6273063 103.40367,9.44649446 C101.649083,8.73800738 100.011468,9.2103321 100.011468,10.2730627 Z" id="Shape"></path>
                    <path d="M112.644495,6.49446494 L112.644495,9.44649446 C112.644495,11.099631 114.399083,11.2177122 115.451835,10.6273063 L116.270642,12.398524 C115.68578,12.7527675 114.983945,12.9889299 113.81422,12.9889299 C111.591743,12.9889299 110.305046,11.3357934 110.305046,9.2103321 L110.305046,6.37638376 L108.316514,6.37638376 L108.316514,4.25092251 L110.305046,4.25092251 L110.305046,1.18081181 L112.527523,0.472324723 L112.527523,4.25092251 L116.270642,4.25092251 L116.270642,6.37638376 L112.644495,6.49446494 L112.644495,6.49446494 Z" id="Path"></path>
                    <path d="M127.5,10.8634686 L127.5,12.9889299 L120.130734,12.9889299 L120.130734,10.8634686 L122.704128,10.8634686 L122.704128,6.61254613 L120.481651,6.61254613 L120.481651,4.48708487 L125.043578,4.48708487 L125.043578,10.9815498 L127.5,10.8634686 L127.5,10.8634686 Z M122.353211,1.41697417 C122.353211,0.590405904 122.938073,0 123.756881,0 C124.575688,0 125.16055,0.590405904 125.16055,1.41697417 C125.16055,2.24354244 124.575688,2.83394834 123.756881,2.83394834 C122.938073,2.95202952 122.353211,2.24354244 122.353211,1.41697417 Z" id="Shape"></path>
                    <path d="M138.612385,8.6199262 C138.612385,11.099631 136.740826,13.1070111 134.401376,13.1070111 C131.827982,13.1070111 130.190367,11.099631 130.190367,8.6199262 C130.190367,6.1402214 131.827982,4.13284133 134.401376,4.13284133 C136.740826,4.25092251 138.612385,6.1402214 138.612385,8.6199262 Z M136.272936,8.6199262 C136.272936,7.32103321 135.454128,6.37638376 134.284404,6.37638376 C133.114679,6.37638376 132.295872,7.43911439 132.295872,8.6199262 C132.295872,9.80073801 133.114679,10.8634686 134.284404,10.8634686 C135.454128,10.9815498 136.272936,9.91881919 136.272936,8.6199262 Z" id="Shape"></path>
                    <path d="M148.905963,8.0295203 L148.905963,12.8708487 L146.683486,12.8708487 L146.683486,8.0295203 C146.683486,6.61254613 145.864679,6.25830258 145.162844,6.25830258 C144.461009,6.25830258 143.642202,6.84870849 143.642202,8.26568266 L143.642202,12.8708487 L141.419725,12.8708487 L141.419725,4.25092251 L143.642202,4.25092251 L143.642202,5.19557196 C143.993119,4.72324723 144.694954,4.13284133 145.747706,4.13284133 C147.502294,4.25092251 148.905963,5.43173432 148.905963,8.0295203 Z" id="Path"></path>
                    <path d="M170.779817,9.56457565 L164.931193,9.56457565 C165.165138,10.3911439 165.866972,10.9815498 166.919725,10.9815498 C167.738532,10.9815498 168.323394,10.6273063 168.791284,10.1549815 L170.311927,11.5719557 C169.610092,12.5166052 168.323394,13.1070111 167.036697,13.1070111 C164.34633,13.1070111 162.708716,11.099631 162.708716,8.6199262 C162.708716,6.1402214 164.229358,4.13284133 166.919725,4.13284133 C168.440367,4.13284133 170.896789,5.07749077 170.896789,8.38376384 C170.896789,8.85608856 170.779817,9.2103321 170.779817,9.56457565 Z M164.931193,7.79335793 L168.557339,7.79335793 C168.440367,7.08487085 167.855505,6.37638376 166.802752,6.37638376 C165.75,6.37638376 165.165138,6.96678967 164.931193,7.79335793 Z" id="Shape"></path>
                    <path d="M181.424312,8.0295203 L181.424312,12.8708487 L179.201835,12.8708487 L179.201835,8.0295203 C179.201835,6.61254613 178.383028,6.25830258 177.681193,6.25830258 C176.979358,6.25830258 176.16055,6.84870849 176.16055,8.26568266 L176.16055,12.8708487 L173.938073,12.8708487 L173.938073,4.25092251 L176.16055,4.25092251 L176.16055,5.19557196 C176.511468,4.72324723 177.213303,4.13284133 178.266055,4.13284133 C179.90367,4.25092251 181.424312,5.43173432 181.424312,8.0295203 Z" id="Path"></path>
                    <path d="M192.536697,14.4059041 C192.536697,16.4132841 190.78211,17.7121771 188.325688,17.7121771 C185.635321,17.7121771 184.114679,16.4132841 184.114679,14.4059041 C184.114679,13.2250923 184.699541,12.398524 185.401376,11.9261993 C185.167431,11.5719557 184.933486,10.3911439 185.635321,9.44649446 C185.050459,8.85608856 184.816514,8.14760148 184.816514,7.32103321 C184.816514,5.5498155 186.220183,4.13284133 188.325688,4.13284133 C189.027523,4.13284133 189.729358,4.36900369 190.31422,4.60516605 L191.483945,3.54243542 L192.770642,4.95940959 L191.600917,6.02214022 C191.834862,6.37638376 191.834862,6.84870849 191.834862,7.20295203 C191.834862,8.97416974 190.31422,10.2730627 188.325688,10.2730627 C187.974771,10.2730627 187.623853,10.2730627 187.389908,10.1549815 C187.272936,10.5092251 187.389908,10.9815498 188.676606,11.099631 C190.899083,11.3357934 192.536697,12.2804428 192.536697,14.4059041 Z M190.197248,14.4059041 C190.197248,13.697417 189.612385,13.3431734 188.442661,13.3431734 C187.857798,13.3431734 187.155963,13.3431734 186.922018,13.2250923 C186.454128,13.4612546 186.220183,13.8154982 186.220183,14.2878229 C186.220183,14.99631 186.805046,15.5867159 188.208716,15.5867159 C189.495413,15.5867159 190.197248,14.99631 190.197248,14.4059041 Z M186.922018,7.32103321 C186.922018,7.91143911 187.506881,8.38376384 188.208716,8.38376384 C188.91055,8.38376384 189.495413,7.91143911 189.495413,7.32103321 C189.495413,6.73062731 188.91055,6.25830258 188.208716,6.25830258 C187.506881,6.37638376 186.922018,6.84870849 186.922018,7.32103321 Z" id="Shape"></path>
                    <path d="M201.192661,12.9889299 L201.075688,11.9261993 C200.490826,12.6346863 199.204128,13.1070111 198.151376,13.1070111 C196.162844,13.1070111 195.110092,11.8081181 195.110092,10.2730627 C195.110092,8.0295203 197.917431,6.84870849 200.724771,7.79335793 C200.607798,6.73062731 200.139908,6.25830258 198.970183,6.25830258 C198.151376,6.25830258 197.449541,6.49446494 196.981651,6.73062731 L196.162844,5.07749077 C196.864679,4.60516605 197.800459,4.13284133 199.321101,4.13284133 C201.426606,4.13284133 203.181193,5.31365314 203.181193,8.50184502 L203.181193,12.8708487 L201.192661,12.9889299 L201.192661,12.9889299 Z M197.332569,10.2730627 C197.332569,10.9815498 197.917431,11.3357934 198.736239,11.3357934 C199.555046,11.3357934 200.490826,10.6273063 200.724771,9.44649446 C198.970183,8.73800738 197.332569,9.2103321 197.332569,10.2730627 Z" id="Shape"></path>
                    <path d="M214.059633,14.4059041 C214.059633,16.4132841 212.305046,17.7121771 209.848624,17.7121771 C207.158257,17.7121771 205.637615,16.4132841 205.637615,14.4059041 C205.637615,13.2250923 206.222477,12.398524 206.924312,11.9261993 C206.690367,11.5719557 206.456422,10.3911439 207.158257,9.44649446 C206.573394,8.85608856 206.33945,8.14760148 206.33945,7.32103321 C206.33945,5.5498155 207.743119,4.13284133 209.848624,4.13284133 C210.550459,4.13284133 211.252294,4.36900369 211.837156,4.60516605 L213.006881,3.54243542 L214.293578,4.95940959 L213.123853,6.02214022 C213.357798,6.37638376 213.357798,6.84870849 213.357798,7.20295203 C213.357798,8.97416974 211.837156,10.2730627 209.848624,10.2730627 C209.497706,10.2730627 209.146789,10.2730627 208.912844,10.1549815 C208.795872,10.5092251 208.912844,10.9815498 210.199541,11.099631 C212.538991,11.3357934 214.059633,12.2804428 214.059633,14.4059041 Z M211.837156,14.4059041 C211.837156,13.697417 211.252294,13.3431734 210.082569,13.3431734 C209.497706,13.3431734 208.795872,13.3431734 208.561927,13.2250923 C208.094037,13.4612546 207.860092,13.8154982 207.860092,14.2878229 C207.860092,14.99631 208.444954,15.5867159 209.848624,15.5867159 C211.135321,15.5867159 211.837156,14.99631 211.837156,14.4059041 Z M208.561927,7.32103321 C208.561927,7.91143911 209.146789,8.38376384 209.848624,8.38376384 C210.550459,8.38376384 211.135321,7.91143911 211.135321,7.32103321 C211.135321,6.73062731 210.550459,6.25830258 209.848624,6.25830258 C209.146789,6.25830258 208.561927,6.84870849 208.561927,7.32103321 Z" id="Shape"></path>
                    <path d="M224.821101,9.56457565 L218.972477,9.56457565 C219.206422,10.3911439 219.908257,10.9815498 220.961009,10.9815498 C221.779817,10.9815498 222.364679,10.6273063 222.832569,10.1549815 L224.353211,11.5719557 C223.651376,12.5166052 222.364679,13.1070111 221.077982,13.1070111 C218.387615,13.1070111 216.75,11.099631 216.75,8.6199262 C216.75,6.1402214 218.270642,4.13284133 220.961009,4.13284133 C222.481651,4.13284133 224.938073,5.07749077 224.938073,8.38376384 C224.938073,8.85608856 224.938073,9.2103321 224.821101,9.56457565 Z M218.972477,7.79335793 L222.598624,7.79335793 C222.481651,7.08487085 221.896789,6.37638376 220.844037,6.37638376 C219.791284,6.37638376 219.206422,6.96678967 218.972477,7.79335793 Z M221.077982,3.18819188 L219.674312,3.18819188 L220.844037,0.354243542 L222.832569,0.354243542 L221.077982,3.18819188 Z" id="Shape"></path>
                    <path d="M235.699541,9.56457565 L229.850917,9.56457565 C230.084862,10.3911439 230.786697,10.9815498 231.83945,10.9815498 C232.658257,10.9815498 233.243119,10.6273063 233.711009,10.1549815 L235.231651,11.5719557 C234.529817,12.5166052 233.243119,13.1070111 231.956422,13.1070111 C229.266055,13.1070111 227.62844,11.099631 227.62844,8.6199262 C227.62844,6.1402214 229.149083,4.13284133 231.83945,4.13284133 C233.360092,4.13284133 235.816514,5.07749077 235.816514,8.38376384 C235.699541,8.85608856 235.699541,9.2103321 235.699541,9.56457565 Z M229.850917,7.79335793 L233.477064,7.79335793 C233.360092,7.08487085 232.775229,6.37638376 231.722477,6.37638376 C230.669725,6.37638376 230.084862,6.96678967 229.850917,7.79335793 Z" id="Shape"></path>
                </g>
            </g>
        </g>
    </g>
</svg>