<?xml version="1.0" encoding="UTF-8"?>
<svg width="94px" height="94px" viewBox="0 0 94 94" version="1.1" xmlns="http://www.w3.org/2000/svg" xmlns:xlink="http://www.w3.org/1999/xlink">
    <title>logo_bio</title>
    <g id="Page-1" stroke="none" stroke-width="1" fill="none" fill-rule="evenodd">
        <g id="détail-Ginger-Beer" transform="translate(-543.000000, -693.000000)" fill="#000000" fill-rule="nonzero">
            <g id="logo_bio" transform="translate(542.979683, 693.000000)">
                <path d="M93.0411445,49.5029439 C92.7543221,51.488972 92.6196024,53.4923832 92.2241351,55.4653738 C90.5683875,63.7093458 87.0222193,71.018972 81.446565,77.3116822 C74.1456305,85.5556542 65.0542286,90.7271495 54.1940884,92.4524299 C40.3310043,94.6557477 27.8020791,91.3399065 16.9158641,82.4136449 C7.92876131,75.0388318 2.43567719,65.4998131 0.636518316,54.0182243 C-1.51464991,40.307243 1.78815383,27.9 10.5232006,17.0876636 C17.3765183,8.59598131 26.2767052,3.29845794 36.9282473,0.96911215 C38.8925464,0.538878505 40.8785744,0.234672897 42.8906772,0.134719626 C43.1210043,0.121682243 43.3426398,0.0478037383 43.5686211,0 C45.5503034,0 47.5319856,0 49.5136678,0 C49.7396492,0.0478037383 49.9656305,0.121682243 50.1916118,0.134719626 C52.2037146,0.234672897 54.1897426,0.538878505 56.1540417,0.96911215 C66.8055837,3.29845794 75.6449295,8.64378505 82.5721258,17.0746262 C87.5524062,23.1370093 90.7509108,30.055514 92.2458641,37.7649533 C92.6196024,39.6814486 92.7543221,41.6283645 93.0411445,43.5535514 L93.0411445,49.5029439 Z M33.6775931,69.3588785 C31.2830604,68.1985514 29.2926865,66.5862617 27.4848361,64.7697196 C22.3567987,59.6156075 18.9670791,53.4445794 16.9723594,46.478271 C16.3769856,44.4009813 15.9728267,42.2845794 15.5947426,40.1638318 C15.5165183,39.7205607 15.4035277,39.2685981 14.8559576,39.2207944 C14.3170791,39.1729907 14.0997893,39.5814953 13.9259576,39.9943458 C13.7564716,40.3985047 13.5956772,40.8026636 13.4653034,41.2198598 C11.4749295,47.5473364 10.8839015,53.9834579 11.9660043,60.5499533 C13.156752,67.7683178 16.1292753,74.126215 21.2920791,79.3498598 C25.1554903,83.2610748 29.8228735,85.8902804 35.0986678,87.4286916 C40.570023,89.0279439 46.1543688,89.3625701 51.7952099,88.8063084 C56.0062847,88.3934579 60.0478735,87.2765888 63.7809108,85.2557944 C71.725023,80.9534579 76.5140884,74.1827103 78.9042753,65.6041121 C80.5513314,59.7025234 80.6990884,53.7009813 79.7430136,47.6733645 C78.6304903,40.646215 76.0012847,34.2274766 71.8380136,28.4519159 C71.6554903,28.1998598 71.4599295,27.8087383 71.112266,27.9347664 C70.6907239,28.091215 70.8819389,28.534486 70.9167052,28.8647664 C70.94278,29.1211682 71.0296959,29.3775701 71.0992286,29.6296262 C71.5511912,31.3549065 71.8119389,33.1149533 71.8988548,34.8880374 C72.1943688,40.941729 71.090537,46.7824766 69.0653968,52.4624299 C68.5395557,53.9313084 67.9919856,55.4045327 67.1662847,56.8038785 C67.1097893,56.6778505 67.0663314,56.6257009 67.075023,56.5865888 C67.1228267,56.3562617 67.1749763,56.1302804 67.2358174,55.9042991 C68.4960978,51.171729 69.08278,46.3826636 68.7785744,41.4675701 C68.4309108,35.8571495 66.9924529,30.5596262 64.5935744,25.5098131 C62.2468454,20.5729907 59.0961445,16.1793925 55.323995,12.237757 C53.2249763,10.0474766 50.9564716,8.04406542 48.4098361,6.36658879 C47.6667052,5.87551402 47.0843688,5.82771028 46.29778,6.38397196 C40.4309576,10.5385514 35.4246024,15.5231776 31.5481538,21.5942523 C26.7590884,29.0950935 24.5036211,37.2738785 25.2641351,46.1957944 C25.8334342,52.8926636 28.0106772,59.1028037 31.1917987,64.9826636 C31.9870791,66.4558879 32.8562379,67.8943458 33.6906305,69.3501869 L33.6775931,69.3588785 Z" id="Shape"></path>
            </g>
        </g>
    </g>
</svg>