<?xml version="1.0" encoding="UTF-8"?>
<svg width="95px" height="94px" viewBox="0 0 95 94" version="1.1" xmlns="http://www.w3.org/2000/svg" xmlns:xlink="http://www.w3.org/1999/xlink">
    <title>logo_additives_free</title>
    <g id="Page-1" stroke="none" stroke-width="1" fill="none" fill-rule="evenodd">
        <g id="détail-Ginger-Beer" transform="translate(-163.000000, -693.000000)" fill="#000000" fill-rule="nonzero">
            <g id="logo_additives_free" transform="translate(163.811331, 693.000000)">
                <path d="M46.6971969,5.24042467e-05 C20.9957719,-0.0190561497 0.212363138,20.7611591 0.00159101441,46.2901342 C-0.209181109,72.1384609 20.5486795,93.1773511 46.2692656,93.3913167 C72.3443321,93.6084759 93.2011918,72.6781653 93.3991898,47.0821264 C93.6003814,20.8888998 72.4018154,-0.0382172519 46.6971969,5.24042467e-05 Z M46.4033933,91.734713 C21.5546374,91.5837861 1.46422181,71.2155345 1.65902635,46.3188758 C1.85063737,21.7287948 21.9570205,1.59047643 46.7035839,1.66686609 C71.4469538,1.58408939 91.8758822,21.8086327 91.7424112,46.9479987 C91.6108203,71.6977556 71.4245992,91.8839767 46.4033933,91.734713 Z" id="Shape"></path>
                <path d="M47.0037745,2.4199135 C22.3657907,2.26750204 2.41269637,22.2205964 2.43500369,46.6765497 C2.3999223,70.9025699 21.9378594,90.7630522 46.3139749,90.9642438 C70.9902809,91.1686289 90.8028605,71.3368882 90.9721169,47.0406107 C91.1477603,22.2748862 71.1723113,2.57407967 47.000581,2.42398437 L47.0037745,2.4199135 Z M21.490767,63.2956123 C20.9350951,63.2956123 20.3826166,63.2860318 19.8269447,63.2988058 C19.5363346,63.3083864 19.3798523,63.1934198 19.2872403,62.9219708 C19.1882413,62.6281673 19.0477265,62.3471378 18.9487275,62.0501407 C18.859309,61.7914658 18.6964397,61.6924668 18.4281842,61.7020473 C17.9906724,61.7148214 17.549967,61.7052408 17.1124552,61.7052408 C16.6621693,61.7052408 16.2118834,61.7148214 15.7615975,61.7052408 C15.5029226,61.6988538 15.3560209,61.8042399 15.2697959,62.0469472 C15.1612163,62.3503313 15.0207016,62.6441348 14.9153155,62.9507125 C14.825897,63.2093874 14.6630277,63.3051929 14.3947722,63.2988058 C13.8295197,63.2860318 13.2642672,63.2988058 12.6958212,63.2956123 C12.3189862,63.2956123 12.287051,63.2413225 12.4371463,62.8868421 C12.9864312,61.5775002 13.5389097,60.2681582 14.0913881,58.9588162 C14.627899,57.6814094 15.1676033,56.4040026 15.7041142,55.1265958 C15.752017,55.0084356 15.8095003,54.8966625 15.8542095,54.7753089 C15.9276604,54.5709238 16.0745622,54.4974729 16.2821408,54.5006664 C16.8250387,54.50386 17.3679366,54.5134405 17.9108345,54.4974729 C18.198251,54.4878924 18.3483463,54.6060525 18.4569259,54.8647274 C19.0189849,56.2187786 19.5970115,57.5664428 20.168651,58.9173005 C20.7179359,60.2138684 21.2640273,61.5136298 21.8101188,62.8101977 C22.0017298,63.2668707 21.9889557,63.2924188 21.490767,63.2924188 L21.490767,63.2956123 Z M26.1022056,63.2924188 C25.0866672,63.3083864 24.0679353,63.2956123 23.0523969,63.2956123 C22.9949136,63.2956123 22.9374303,63.2956123 22.879947,63.2924188 C22.6532072,63.2700642 22.5957239,63.2189679 22.5733693,62.9986152 C22.5637888,62.8836486 22.5669823,62.768682 22.5669823,62.6537154 C22.5669823,61.4178243 22.5669823,60.1819332 22.5669823,58.9460421 C22.5669823,57.710151 22.5669823,56.47426 22.5669823,55.2383689 C22.5669823,55.1329828 22.5669823,55.0307903 22.5669823,54.9254042 C22.5829499,54.6379877 22.6308526,54.5836979 22.9214627,54.5773108 C23.3589745,54.5677303 23.7996799,54.5741173 24.2371917,54.5741173 C24.9429589,54.5741173 25.6487262,54.5581497 26.3513,54.5805044 C27.3636449,54.615633 28.3121194,54.8647274 29.1615949,55.4459475 C30.2186491,56.1708758 30.7423859,57.1991883 30.854159,58.4478535 C30.9148358,59.1089115 30.860546,59.7635825 30.6401933,60.3990924 C30.2154556,61.6094353 29.3755606,62.4173951 28.1971528,62.8900356 C27.5233207,63.1582911 26.820747,63.2860318 26.0990121,63.2956123 L26.1022056,63.2924188 Z M36.95697,69.0375559 C36.9537765,69.3441335 36.8962932,69.3984233 36.5833285,69.3984233 C35.8552066,69.4048104 35.1270847,69.3984233 34.3989628,69.3984233 C33.683615,69.3984233 32.9650737,69.3984233 32.2497259,69.3984233 C31.8792779,69.3984233 31.8313752,69.4495196 31.8281816,69.8231611 C31.8249881,70.1361258 31.8217946,70.4458969 31.8345687,70.7588616 C31.8441492,71.0047624 31.9048261,71.0622457 32.1507269,71.0750198 C32.3934342,71.0877938 32.6361415,71.0814068 32.8788487,71.0814068 C33.8848066,71.0814068 34.887571,71.0814068 35.8935288,71.0814068 C35.9989149,71.0814068 36.1011074,71.0814068 36.2064935,71.0877938 C36.3693629,71.0973744 36.4683619,71.1867929 36.4683619,71.3496622 C36.4715554,71.9276888 36.4715554,72.5057154 36.4683619,73.0805485 C36.4683619,73.2466113 36.3565888,73.3264493 36.1969129,73.3328363 C36.0819463,73.3392233 35.9669797,73.3392233 35.8520131,73.3392233 C34.7534432,73.3392233 33.6580669,73.3392233 32.559497,73.3392233 C32.4796591,73.3392233 32.3966277,73.3392233 32.3167898,73.3392233 C31.8760844,73.3456104 31.8377622,73.3775455 31.8345687,73.8118639 C31.8313752,74.5751144 31.8345687,75.3351715 31.8345687,76.098422 C31.8345687,76.2038081 31.8345687,76.3060007 31.8345687,76.4113867 C31.8249881,76.7626736 31.7770854,76.8137699 31.4353791,76.8265439 C31.2629291,76.832931 31.0872857,76.8265439 30.9148358,76.8265439 C30.4773239,76.8265439 30.0366186,76.8265439 29.5991068,76.8265439 C29.1903366,76.8233504 29.1424338,76.7754477 29.1424338,76.3602904 C29.1424338,74.8816921 29.1424338,73.4030937 29.1424338,71.9244953 C29.1424338,70.4810256 29.1424338,69.0375559 29.1424338,67.5940862 C29.1424338,67.0703494 29.1711755,67.0448013 29.6917188,67.0448013 C31.9431483,67.0448013 34.1977713,67.0448013 36.4492008,67.0448013 C36.5066841,67.0448013 36.5641674,67.0448013 36.6216507,67.0448013 C36.9058737,67.0607689 36.9665505,67.1118651 36.9697441,67.4024752 C36.9761311,67.9453731 36.9761311,68.488271 36.9697441,69.0311689 L36.95697,69.0375559 Z M35.3889531,63.2924188 C34.3606406,63.3083864 33.3323282,63.2956123 32.3072092,63.2956123 C32.2273713,63.2956123 32.1443398,63.2956123 32.0645019,63.2828382 C31.9463418,63.2668707 31.8760844,63.1934198 31.8665039,63.0784532 C31.8569233,62.9762606 31.8537298,62.8708745 31.8537298,62.768682 C31.8537298,60.2170619 31.8537298,57.6654418 31.8537298,55.1138217 C31.8537298,55.078693 31.8537298,55.0435643 31.8537298,55.0084356 C31.8633103,54.615633 31.898439,54.5773108 32.3008222,54.5741173 C32.8884293,54.5709238 33.4792299,54.5741173 34.0668371,54.5741173 L34.0668371,54.5741173 C34.5969609,54.5741173 35.1302782,54.5645368 35.6604021,54.5805044 C36.4683619,54.602859 37.2443865,54.7848894 37.9597343,55.1553374 C39.3393337,55.8738788 40.0323269,57.049093 40.1472935,58.5787877 C40.1983898,59.2781679 40.1089713,59.9647741 39.8343288,60.6162515 C39.3776559,61.7052408 38.5792766,62.4525238 37.4870938,62.8900356 C36.8164552,63.1582911 36.110688,63.2860318 35.3889531,63.2956123 L35.3889531,63.2924188 Z M46.5534886,76.8297374 C45.7231742,76.8361245 44.8896663,76.8297374 44.0593518,76.832931 C43.8166445,76.832931 43.6825168,76.6988032 43.5643567,76.5135793 C43.066168,75.7503287 42.5488183,74.9966587 42.0634037,74.2238276 C41.8877603,73.9459916 41.6769881,73.8150574 41.3544429,73.8469925 C41.2171217,73.8597666 41.0766069,73.8469925 40.9392857,73.8533796 C40.6550627,73.8725407 40.6007729,73.9268305 40.5848053,74.2110535 C40.5784183,74.313246 40.5816118,74.4186321 40.5816118,74.5240182 C40.5816118,75.1371734 40.5816118,75.7471352 40.5816118,76.3602904 C40.5816118,76.7786412 40.5369026,76.8265439 40.1313259,76.8297374 C39.5309447,76.832931 38.9305635,76.832931 38.3301823,76.8297374 C37.9405732,76.8297374 37.895864,76.7786412 37.889477,76.3858386 C37.889477,76.2932266 37.889477,76.2006146 37.889477,76.1080026 C37.889477,74.7092421 37.889477,73.3136752 37.889477,71.9149147 C37.889477,70.5289284 37.889477,69.142942 37.889477,67.7569556 C37.889477,67.6515695 37.889477,67.549377 37.889477,67.4439909 C37.902251,67.1086716 37.9469603,67.0511883 38.272699,67.0511883 C39.8886186,67.0511883 41.5077317,67.0479948 43.1236513,67.0639624 C43.6090659,67.0703494 44.0880935,67.1821225 44.5447664,67.3513789 C46.1670731,67.9485666 46.6876163,69.3121984 46.5854238,70.6854107 C46.5343275,71.3720169 46.3107813,71.9915592 45.8573019,72.521683 C45.5890465,72.8314541 45.2601142,73.0613874 44.9088274,73.2657724 C44.5990562,73.4478029 44.5958627,73.460577 44.8002478,73.7639611 C45.3910484,74.6325977 45.9882361,75.5012344 46.5790368,76.3666775 C46.617359,76.4241608 46.6588747,76.4784506 46.6971969,76.5391274 C46.8409052,76.7722541 46.8217441,76.8265439 46.5630692,76.8297374 L46.5534886,76.8297374 Z M43.6122595,58.9300745 C43.6122595,60.1755462 43.6122595,61.4242113 43.6122595,62.669683 C43.6122595,62.775069 43.615453,62.8772616 43.6058724,62.9826476 C43.5867113,63.2221614 43.529228,63.2892253 43.2801337,63.2924188 C42.6925266,63.3019993 42.1017259,63.3019993 41.5141188,63.2924188 C41.2714115,63.2892253 41.2203152,63.2221614 41.2043476,62.9730671 C41.1979606,62.8804551 41.2011541,62.7878431 41.2011541,62.6952311 C41.2011541,60.1915138 41.2011541,57.6846029 41.2011541,55.1808856 C41.2011541,54.7763734 41.4087327,54.5741173 41.8238899,54.5741173 C42.2869499,54.5741173 42.7468163,54.5709238 43.2098763,54.5741173 C43.5579697,54.5773108 43.6090659,54.6284071 43.6090659,54.9828875 C43.6122595,56.2986165 43.6090659,57.6143455 43.6090659,58.9300745 L43.6090659,58.9300745 L43.6122595,58.9300745 Z M47.0420967,62.9443254 C47.0357097,62.8293588 47.0389032,62.7143922 47.0389032,62.5962321 C47.0389032,60.897281 47.0389032,59.19833 47.0389032,57.4993789 C47.0389032,57.4067669 47.0389032,57.3141549 47.0389032,57.2215429 C47.0389032,56.665871 47.0229356,56.6499034 46.4832313,56.6499034 C45.9978167,56.6499034 45.5124021,56.6499034 45.0269875,56.6499034 C44.9343755,56.6499034 44.8417635,56.6499034 44.7491515,56.6435164 C44.5703146,56.6371293 44.461735,56.5509044 44.461735,56.3688739 C44.4585415,55.8611047 44.4585415,55.3533355 44.461735,54.8455663 C44.461735,54.6826969 44.5575405,54.5900849 44.7204099,54.5805044 C44.8226024,54.5741173 44.9279885,54.5741173 45.0333745,54.5741173 C46.1191703,54.5741173 47.2049661,54.5741173 48.2907619,54.5741173 C49.3637836,54.5741173 50.4399988,54.5741173 51.5130206,54.5741173 C51.6184066,54.5741173 51.7205992,54.5741173 51.8259852,54.5836979 C51.9760805,54.5932784 52.065499,54.6763099 52.0686925,54.8264052 C52.0750796,55.3469484 52.0750796,55.8674917 52.0686925,56.3848415 C52.0686925,56.573259 51.9473389,56.6467099 51.7716954,56.6499034 C51.5066335,56.6499034 51.2415716,56.6530969 50.9733162,56.6530969 C50.5932877,56.6530969 50.2100656,56.6499034 49.8300371,56.6562904 C49.5042984,56.6626775 49.4563956,56.7169672 49.4468151,57.049093 C49.4436215,57.1544791 49.4468151,57.2566716 49.4468151,57.3620577 C49.4468151,59.118492 49.4468151,60.8749264 49.4468151,62.6313608 C49.4468151,62.7367468 49.4468151,62.8389394 49.4468151,62.9443254 C49.434041,63.2349355 49.3829447,63.2956123 49.0987217,63.2988058 C48.5334692,63.3051929 47.9650232,63.3051929 47.3997706,63.2988058 C47.1123541,63.2956123 47.0580643,63.231742 47.0420967,62.9507125 L47.0420967,62.9443254 Z M55.6007224,76.5582885 C55.6007224,76.7435125 55.4889493,76.8265439 55.3101123,76.8297374 C55.2175003,76.8297374 55.1248883,76.8361245 55.0322763,76.8361245 C52.7680728,76.8361245 50.5038692,76.8361245 48.2396656,76.8361245 C47.655252,76.8361245 47.648865,76.8297374 47.648865,76.2261627 C47.648865,74.7922736 47.648865,73.361578 47.648865,71.9276888 C47.648865,70.5289284 47.648865,69.1301679 47.648865,67.734601 C47.648865,67.6643436 47.648865,67.5972797 47.648865,67.5270224 C47.655252,67.092704 47.6903807,67.0543818 48.1278925,67.0511883 C50.4399988,67.0511883 52.7489117,67.0511883 55.061018,67.0511883 C55.1312753,67.0511883 55.1983392,67.0511883 55.2685966,67.0575754 C55.4346595,67.0671559 55.5272715,67.1533809 55.530465,67.3194438 C55.5336585,67.8974703 55.5336585,68.4754969 55.530465,69.0535235 C55.530465,69.2163929 55.437853,69.3121984 55.2717901,69.3217789 C55.1568235,69.328166 55.0418569,69.3313595 54.9268903,69.3313595 C53.6111612,69.3313595 52.2922387,69.3313595 50.9765097,69.3313595 C50.9062523,69.3313595 50.8391885,69.3313595 50.7689311,69.3313595 C50.3378063,69.3377465 50.2962906,69.3728752 50.2930971,69.810387 C50.2930971,70.0658684 50.2930971,70.3181562 50.2994841,70.5736376 C50.3026776,70.7524746 50.3984831,70.8514736 50.5805136,70.8578606 C50.6954802,70.8610541 50.8104468,70.8642476 50.9254134,70.8642476 C52.0814666,70.8642476 53.2375198,70.8642476 54.3903794,70.8642476 C54.4957655,70.8642476 54.597958,70.8642476 54.7033441,70.8642476 C54.9843736,70.8802152 55.0418569,70.9313115 55.0482439,71.2251151 C55.0578245,71.675401 55.0578245,72.1256869 55.0482439,72.5759728 C55.0418569,72.8825504 54.9843736,72.9432272 54.6777959,72.9464207 C54.134898,72.9528078 53.5920001,72.9496143 53.0491023,72.9496143 C52.2858517,72.9496143 51.5226011,72.9496143 50.7625441,72.9496143 C50.3473869,72.9496143 50.2994841,73.0039041 50.2930971,73.4062872 C50.28671,73.6489945 50.28671,73.8917018 50.2930971,74.1344091 C50.3026776,74.4888895 50.3505804,74.5399857 50.6954802,74.5431793 C51.0659282,74.5495663 51.4363762,74.5431793 51.8036306,74.5431793 C52.8670718,74.5431793 53.9305129,74.5431793 54.9939541,74.5431793 C55.1089207,74.5431793 55.2238873,74.5431793 55.338854,74.5527598 C55.5049168,74.5623404 55.5975288,74.6549524 55.5975288,74.8178217 C55.6007224,75.3958483 55.6007224,75.9738749 55.5975288,76.5519015 L55.6007224,76.5582885 Z M55.3292734,62.6121997 C55.3292734,62.669683 55.3292734,62.7271663 55.3292734,62.7846496 C55.3228864,63.2636771 55.2941447,63.2956123 54.8151172,63.2956123 C54.307348,63.2956123 53.7995788,63.3019993 53.2918095,63.2956123 C52.9820384,63.2924188 52.9277486,63.2349355 52.9213616,62.9283579 C52.9149745,62.583458 52.9213616,62.2353647 52.9213616,61.8904648 C52.9213616,59.6390353 52.9213616,57.3876058 52.9213616,55.1361763 C52.9213616,54.5836979 52.9309421,54.5741173 53.4834206,54.5741173 C53.9464805,54.5741173 54.406347,54.5741173 54.869407,54.5741173 C55.2909512,54.5741173 55.3292734,54.6124395 55.3292734,55.0275967 C55.3292734,56.3433258 55.3292734,57.6590548 55.3292734,58.9747838 C55.3292734,60.1883202 55.3292734,61.3986632 55.3292734,62.6121997 L55.3292734,62.6121997 Z M53.2630679,42.4227851 C52.9532967,42.3461407 52.7425246,42.416398 52.5317525,42.6495248 C51.5736974,43.7033854 50.4687405,44.5688285 49.2041078,45.2234995 C47.4285123,46.1432324 45.5507243,46.6094859 43.5420021,46.6126794 C40.6933849,46.6126794 38.1481518,45.7472363 35.925464,43.9939954 C33.2908124,41.9182094 31.7675048,39.1813653 31.3140254,35.8569141 C31.2469615,35.3555319 31.1990588,34.8477627 31.2246069,34.4230249 C31.2182199,31.8394697 31.9495353,29.5816531 33.3035865,27.4771254 C35.548629,23.9898048 37.7234141,20.457775 39.9301343,16.9480998 C40.9552533,15.3130191 41.9835658,13.6811319 43.0086847,12.0492447 C43.2641661,11.643668 43.2737466,11.6468615 43.5388086,12.0620187 C45.870076,15.7122087 48.2013434,19.3655922 50.5326108,23.0157821 C50.8679301,23.5427124 51.2032494,24.0664492 51.5385687,24.5933795 C51.589665,24.6700239 51.6407612,24.7498619 51.695051,24.8233128 C51.7780825,24.9318923 51.8643074,24.9350859 51.9473389,24.8233128 C51.9952416,24.7594424 52.0367574,24.689185 52.0782731,24.6189277 C52.8830394,23.3383273 53.6878057,22.057727 54.4957655,20.7771267 C54.7576339,20.3619695 54.783182,20.3619695 55.0386634,20.7675461 C56.4885201,23.0349432 57.9319898,25.3055338 59.3818465,27.5729309 C59.9854212,28.518212 60.595383,29.457106 61.2053447,30.3991935 C61.639663,31.0698321 62.0452397,31.7564382 62.3039146,32.5164953 C63.0384235,34.6689257 62.8021032,36.7447118 61.6684047,38.6895637 C60.3718368,40.915445 58.4078238,42.2088194 55.8498167,42.5441387 C54.9907606,42.6559118 54.1157369,42.6399442 53.2662614,42.4291721 L53.2630679,42.4227851 Z M64.6256015,76.5039987 C64.6224079,76.7498995 64.5553441,76.8041893 64.3158303,76.8265439 C64.2359924,76.832931 64.1529609,76.832931 64.073123,76.832931 C61.7961454,76.832931 59.5223613,76.832931 57.2453836,76.832931 C56.6833246,76.832931 56.6737441,76.8233504 56.6737441,76.2421303 C56.6737441,74.8082412 56.6737441,73.3775455 56.6737441,71.9436564 C56.6737441,70.5225413 56.6737441,69.1014263 56.6737441,67.6803112 C56.6737441,67.5876992 56.6737441,67.4950872 56.6737441,67.4024752 C56.6897117,67.1182522 56.7408079,67.0671559 57.0282245,67.0511883 C57.0729337,67.0511883 57.1208365,67.0511883 57.1655457,67.0511883 C59.4648779,67.0511883 61.7642102,67.0511883 64.0635425,67.0511883 C64.1337998,67.0511883 64.2008637,67.0511883 64.2711211,67.0575754 C64.449958,67.0639624 64.5521506,67.1533809 64.5553441,67.3354113 C64.5553441,67.9006639 64.5649246,68.4691099 64.5553441,69.0343624 C64.5521506,69.2579086 64.4850867,69.3058113 64.25196,69.3249724 C64.1497674,69.334553 64.0443814,69.328166 63.9389953,69.328166 C62.6232663,69.328166 61.3043438,69.328166 59.9886147,69.328166 C59.8960027,69.328166 59.8033908,69.328166 59.7107788,69.328166 C59.4233622,69.3441335 59.3658789,69.3952298 59.3594919,69.6826464 C59.3499113,69.9700629 59.3499113,70.2606729 59.3594919,70.5480895 C59.3690724,70.7748292 59.4297493,70.8323125 59.6501019,70.8546671 C59.7650685,70.8674412 59.8800352,70.8610541 59.9950018,70.8610541 C61.1382809,70.8610541 62.28156,70.8610541 63.4280326,70.8610541 C63.5206446,70.8610541 63.6132566,70.8610541 63.7058686,70.8610541 C64.0092527,70.8770217 64.0635425,70.928118 64.0699295,71.2378891 C64.0763165,71.675401 64.0763165,72.1161063 64.0699295,72.5536182 C64.0635425,72.8825504 64.0092527,72.9400337 63.6803204,72.9432272 C62.757394,72.9496143 61.8312741,72.9432272 60.9083476,72.9464207 C60.515545,72.9464207 60.1227425,72.9400337 59.7299399,72.9496143 C59.4201687,72.9560013 59.3658789,73.0134846 59.3562984,73.3168687 C59.3499113,73.6170593 59.3467178,73.9172499 59.3562984,74.2174405 C59.3658789,74.4633413 59.4265557,74.5176311 59.669263,74.5367922 C59.7842296,74.5463728 59.8991963,74.5431793 60.0141629,74.5431793 C61.342666,74.5431793 62.671169,74.5431793 63.9996721,74.5431793 C64.1050582,74.5431793 64.2072507,74.5399857 64.3126368,74.5463728 C64.5553441,74.5655339 64.6160209,74.6166301 64.6192144,74.868918 C64.628795,75.4118159 64.628795,75.9547138 64.6192144,76.4976117 L64.6256015,76.5039987 Z M65.098242,54.9605329 C64.3062498,56.9309329 63.5142575,58.9045264 62.7190718,60.8749264 C62.4348488,61.5806937 62.1378517,62.2832674 61.8664027,62.9954217 C61.7642102,63.2604836 61.6109214,63.3786438 61.3235049,63.3690632 C60.8508643,63.3530956 60.3750303,63.3499021 59.9023898,63.3690632 C59.5798446,63.3818373 59.4297493,63.2413225 59.3179762,62.953906 C58.9060125,61.8872713 58.4716942,60.8302172 58.0469564,59.766776 C57.41464,58.1923721 56.7791301,56.6179682 56.1468138,55.0403708 C55.9679768,54.5932784 55.9839444,54.5677303 56.4501979,54.5677303 C57.037805,54.5677303 57.6286057,54.5677303 58.2162128,54.5677303 C58.6122089,54.5677303 58.63137,54.5868914 58.7654977,54.9541459 C59.3052021,56.4550989 59.841713,57.9528583 60.3814173,59.4538113 C60.4420942,59.6230677 60.4804164,59.8050982 60.6177376,59.9551935 C60.7486718,59.8434204 60.7742199,59.7029057 60.8189292,59.5783585 C61.3650206,58.0678249 61.9079185,56.5572914 62.4508164,55.0467578 C62.4699775,54.9924681 62.4923321,54.9381783 62.5082997,54.8838885 C62.578557,54.6475682 62.7350394,54.5613433 62.9745532,54.5644516 C63.597289,54.5741173 64.2232183,54.5644516 64.8459541,54.5644516 C65.2004345,54.5644516 65.2291762,54.6124395 65.0918549,54.9541459 L65.098242,54.9605329 Z M72.88723,62.9443254 C72.880843,63.2253549 72.8169726,63.2764512 72.5295561,63.2924188 C72.4145895,63.2988058 72.2996229,63.2924188 72.1814627,63.2924188 C70.2972877,63.2924188 68.4163062,63.2924188 66.5321311,63.2924188 C66.4874219,63.2924188 66.4395191,63.2924188 66.3948099,63.2924188 C65.8327509,63.2924188 65.8263639,63.2860318 65.8263639,62.7367468 C65.8263639,61.4657271 65.8263639,60.1947073 65.8263639,58.9236875 C65.8263639,57.6654418 65.8263639,56.4040026 65.8263639,55.1457569 C65.8263639,55.0403708 65.8263639,54.9381783 65.8327509,54.8327922 C65.8391379,54.6667293 65.9285564,54.5773108 66.0946193,54.5709238 C66.1872313,54.5677303 66.2798433,54.5645368 66.3724553,54.5645368 C68.3588229,54.5645368 70.3451904,54.5645368 72.3347515,54.5645368 C72.3698802,54.5645368 72.4050089,54.5645368 72.4401376,54.5645368 C72.8297467,54.5741173 72.8712624,54.6124395 72.8744559,55.0116292 C72.8776494,55.3916577 72.8776494,55.7748797 72.8744559,56.1549083 C72.8680689,56.5221627 72.8233596,56.5700655 72.4465246,56.5700655 C71.2457622,56.573259 70.0449998,56.5700655 68.8410439,56.5700655 C68.7260773,56.5700655 68.6111107,56.5700655 68.4961441,56.579646 C68.3300812,56.5892266 68.2438562,56.6818386 68.2406627,56.8447079 C68.2374692,57.1225439 68.2374692,57.4003799 68.2406627,57.6750224 C68.2406627,57.8410852 68.3300812,57.9336972 68.4961441,57.9432778 C68.6111107,57.9496648 68.7260773,57.9528583 68.8410439,57.9528583 C69.8118731,57.9528583 70.7827023,57.9528583 71.7535314,57.9528583 C71.8461434,57.9528583 71.9387554,57.9528583 72.0313674,57.9528583 C72.3411386,57.9656324 72.4018154,58.0167287 72.4082024,58.3201128 C72.417783,58.6905608 72.417783,59.0610087 72.4082024,59.4282632 C72.4018154,59.760389 72.3507191,59.8082917 72.0217869,59.8210658 C71.8844656,59.8274528 71.7439509,59.8210658 71.6066297,59.8210658 C70.6262199,59.8210658 69.6426167,59.8210658 68.6590135,59.8210658 C68.285372,59.8210658 68.2406627,59.8721621 68.2342757,60.24261 C68.2310822,60.4725433 68.2342757,60.70567 68.2406627,60.9356032 C68.2438562,61.1176337 68.3428553,61.2102457 68.5216922,61.2134392 C68.6366588,61.2134392 68.7516254,61.2198262 68.8665921,61.2198262 C69.9875165,61.2198262 71.108441,61.2198262 72.2293655,61.2198262 C72.3347515,61.2198262 72.4369441,61.2198262 72.5423301,61.2198262 C72.8265532,61.2357938 72.8904235,61.2868901 72.893617,61.5711131 C72.9031976,62.021399 72.9031976,62.4716849 72.893617,62.9219708 L72.88723,62.9443254 Z M80.2738349,56.017587 C80.0439016,56.3369387 79.823549,56.6626775 79.5936157,56.9788356 C79.4275528,57.2055754 79.3860371,57.2183494 79.1369428,57.0746412 C78.5078199,56.7105802 77.853149,56.4455183 77.11864,56.4040026 C76.9078679,56.3912285 76.7034828,56.4040026 76.5022913,56.4678729 C76.2755515,56.5349368 76.1190692,56.678645 76.0839405,56.9277394 C76.0520054,57.1640596 76.1605849,57.3652512 76.3969052,57.4929919 C76.5917097,57.5983779 76.7992883,57.6654418 77.013254,57.7197316 C77.4603464,57.8315047 77.9106323,57.9336972 78.3577246,58.0582444 C78.8495263,58.1955656 79.3253603,58.364822 79.7628721,58.636271 C80.4750264,59.0737828 80.8327003,59.7156797 80.8390874,60.5364136 C80.8486679,61.6477575 80.3792209,62.4940395 79.366876,63.0113893 C78.897429,63.2540966 78.3928533,63.3786438 77.8723101,63.416966 C76.3362284,63.5383196 74.9087263,63.2221614 73.634513,62.3247831 C73.2129687,62.0277861 73.2161622,62.0245925 73.5450945,61.6222094 C73.8165434,61.2932771 74.0879924,60.9611514 74.3658284,60.6354126 C74.5414718,60.4310275 74.5702135,60.4246405 74.7969532,60.5843164 C75.3909473,61.0058606 76.0424248,61.2868901 76.7641596,61.4018567 C77.0643502,61.4497595 77.3613473,61.4497595 77.6615379,61.4337919 C77.8020527,61.4274049 77.9361804,61.3922762 78.0639211,61.3315993 C78.5046264,61.1304078 78.5461421,60.6481867 78.1469525,60.3671572 C78.0032443,60.2649647 77.8435684,60.2010943 77.674312,60.1563851 C77.3389927,60.0637731 77.0068669,59.9743546 76.6683541,59.8913232 C76.0264572,59.7348408 75.3909473,59.5623909 74.8129207,59.2334587 C74.2444747,58.914107 73.8133499,58.4638211 73.6983833,57.8059566 C73.4716436,56.4838405 73.9378971,55.356529 75.2376585,54.7561478 C75.7869434,54.50386 76.2947126,54.417635 77.1697363,54.424022 C78.1725007,54.4016674 79.181652,54.6507617 80.107772,55.2096272 C80.6123477,55.5130113 80.6187347,55.541753 80.2770284,56.017587 L80.2738349,56.017587 Z" id="Shape"></path>
                <path d="M61.3841817,33.0146839 C61.1414744,32.273788 60.7518653,31.6063429 60.3303211,30.9516719 C58.9219801,28.7545322 57.513639,26.5573925 56.1084916,24.3602528 C55.722076,23.7566781 55.3420475,23.1499098 54.9492449,22.5527222 C54.8087301,22.335563 54.7416663,22.34195 54.5947645,22.5431416 C54.5277006,22.6357536 54.4670238,22.7347526 54.406347,22.8337517 C52.6562997,25.621692 50.9126394,28.4128259 49.1530115,31.1943792 C48.2747943,32.5835591 47.9714102,34.0877056 48.1821823,35.7036252 C48.6228877,39.0568181 51.509827,41.5796966 54.8630199,41.5765061 C55.1344689,41.563729 55.3771762,41.5541484 55.6198835,41.5413744 C55.6997214,41.5381808 55.7795593,41.5254068 55.8593972,41.5126327 C58.5355645,41.0431857 60.3686433,39.5390392 61.3075373,36.9969996 C61.7897583,35.6940447 61.8185,34.3527675 61.3809882,33.0178774 L61.3841817,33.0146839 Z" id="Path"></path>
                <path d="M43.0438134,69.4559066 C42.9128792,69.4175844 42.775558,69.3888428 42.6382368,69.3728752 C42.0506296,69.3090049 41.4630225,69.34094 40.8754154,69.3505206 C40.6518692,69.3537141 40.5879988,69.4239715 40.5784183,69.6475177 C40.5656442,69.9477083 40.5784183,70.2478989 40.5784183,70.5448959 L40.5784183,70.5448959 C40.5784183,70.8450865 40.5688377,71.1452771 40.5784183,71.4422742 C40.5879988,71.6849815 40.6518692,71.7520454 40.8945765,71.7552389 C41.459829,71.7648194 42.0250815,71.7616259 42.5871405,71.7488519 C42.7468163,71.7456583 42.9064922,71.7009491 43.059781,71.6530464 C43.5835178,71.4869835 43.8869019,71.0686327 43.8805149,70.5417024 C43.8741278,69.9988045 43.5803243,69.612389 43.0406199,69.4495196 L43.0438134,69.4559066 Z" id="Path"></path>
                <path d="M26.5812332,56.7297413 C26.1948176,56.665871 25.802015,56.6467099 25.4092124,56.6594839 C25.0291839,56.672258 24.9780876,56.7233543 24.9748941,57.1129634 C24.9717006,57.7133446 24.9748941,58.3137258 24.9748941,58.9109134 L24.9748941,58.9109134 C24.9748941,59.5336493 24.9685071,60.1563851 24.9748941,60.7791209 C24.9780876,61.0920856 25.0355709,61.1495689 25.3357615,61.1559559 C25.6455327,61.1623429 25.9584974,61.1719235 26.2682685,61.1495689 C27.5169337,61.0505698 28.2961518,60.3384155 28.4079249,59.19833 C28.5228915,58.0358898 27.9384779,56.9532875 26.5780397,56.7265478 L26.5812332,56.7297413 Z" id="Path"></path>
                <path d="M35.7721752,56.7137737 C35.4049207,56.665871 35.0376663,56.6467099 34.6672183,56.6594839 C34.3159314,56.6690645 34.2616416,56.7169672 34.2584481,57.0650606 C34.2520611,57.6782159 34.2584481,58.2881776 34.2584481,58.9013329 L34.2584481,58.9013329 C34.2584481,59.4793595 34.2584481,60.0573861 34.2584481,60.6322191 C34.2584481,60.7248311 34.2584481,60.8174431 34.2680287,60.9100551 C34.2776092,61.0601504 34.3574471,61.1495689 34.5075424,61.1527624 C35.1877616,61.175117 35.8711742,61.2102457 36.5162646,60.9132486 C37.0368079,60.6705413 37.3880948,60.2809322 37.5733188,59.7380343 C37.6691243,59.4601984 37.6691243,59.1727818 37.6787048,58.8821718 C37.7234141,57.6335066 36.8164552,56.851095 35.7721752,56.7137737 L35.7721752,56.7137737 Z" id="Path"></path>
                <path d="M17.2465829,57.6782159 C17.2210348,57.6143455 17.2050672,57.5313141 17.1284228,57.5217335 C17.0230367,57.5089595 17.0070692,57.611152 16.9783275,57.6814094 C16.7356202,58.2785971 16.4961064,58.8789783 16.2565927,59.4793595 C16.2438186,59.5112946 16.2310445,59.5432298 16.2246575,59.5783585 C16.1863353,59.7508084 16.2246575,59.8242593 16.4003009,59.8370334 C16.6398147,59.853001 16.8857155,59.8402269 17.1252293,59.8402269 C17.1252293,59.8402269 17.1252293,59.8434204 17.1252293,59.8466139 C17.3551625,59.8466139 17.5882892,59.8561945 17.8182225,59.8466139 C18.0289946,59.8370334 18.0673168,59.7827436 17.9906724,59.5847455 C17.7479651,58.9492356 17.4956773,58.3169193 17.2465829,57.6846029 L17.2465829,57.6782159 Z" id="Path"></path>
            </g>
        </g>
    </g>
</svg>