<?xml version="1.0" encoding="UTF-8"?>
<svg width="94px" height="94px" viewBox="0 0 94 94" version="1.1" xmlns="http://www.w3.org/2000/svg" xmlns:xlink="http://www.w3.org/1999/xlink">
    <title>logo_vegan</title>
    <g id="Page-1" stroke="none" stroke-width="1" fill="none" fill-rule="evenodd">
        <g id="détail-Ginger-Beer" transform="translate(-418.000000, -693.000000)" fill="#000000" fill-rule="nonzero">
            <g id="logo_vegan" transform="translate(417.997107, 693.000000)">
                <path d="M46.7732473,2.0727632e-05 C21.020577,-0.0240404918 0.0150674673,20.9032026 8.10966363e-06,46.5986782 C-0.0150350112,72.4025228 20.900167,93.38094 46.6528374,93.3929862 C72.3332618,93.405022 93.3478021,72.5048712 93.3869902,46.911744 C93.4260685,21.0326432 72.5499997,0.0241234738 46.7732473,2.0727632e-05 Z M46.5775812,87.8391106 C23.9856711,87.8119815 5.54790302,69.2989572 5.55392204,46.6558729 C5.55994401,24.0097783 24.0609273,5.54491803 46.7371243,5.55394546 C69.4133214,5.55996927 87.8661407,24.0850345 87.8390783,46.8154161 C87.8149665,69.4344184 69.27485,87.8691762 46.5775812,87.8391106 Z" id="Shape"></path>
                <path d="M38.5582809,46.2705612 C33.9345402,40.1687888 27.9832802,35.6925502 21.2192533,32.2337755 C19.9790312,31.5986132 18.6996759,31.0477378 17.4353718,30.454719 C14.0217507,38.5914189 13.1578096,51.1592037 19.0488646,61.9449217 C24.446239,71.8335859 32.9020252,77.7336717 43.7599892,80.8131553 C43.6064666,80.482028 43.5462616,80.3465669 43.4830464,80.2111057 C42.2488448,77.5259646 40.8310181,74.907049 39.8135543,72.1406312 C36.4059537,62.8750883 31.8394077,54.2386872 26.1169266,46.2043357 C25.9453424,45.9635159 25.7918198,45.7076448 25.6322767,45.4577943 C25.8369735,45.4577943 25.9634039,45.52703 26.0717729,45.6203477 C32.1885965,51.0026708 36.9267266,57.4114885 40.1205996,64.9039954 C42.0230762,69.3621724 43.6877433,73.9226979 45.4607793,78.4350595 C45.5390457,78.6367461 45.6444044,78.8294019 45.7828758,79.1274165 C45.8310397,78.9347606 45.858132,78.8685352 45.8671627,78.7992995 C46.4391098,73.9016262 46.4481406,69.0099734 45.7286913,64.1273514 C44.7684223,57.6011341 42.5739516,51.5655872 38.5582809,46.2675509 L38.5582809,46.2705612 Z" id="Path"></path>
                <path d="M75.7137701,43.3626618 C75.6595857,42.345198 75.5241245,41.3277342 75.4247864,40.2982295 C68.7932103,41.7732509 58.8142387,49.3711165 54.7865271,56.0267745 C50.3072783,63.4259637 49.319917,71.5536329 50.0514072,80.0033986 C51.3879573,76.9991712 52.6643024,73.9648414 54.0730984,70.996737 C55.5029661,67.9864892 57.3693197,65.2381329 59.4674625,62.6432992 C61.7793328,59.7835638 65.4548455,56.2405021 66.7010881,55.8190674 C60.3855881,63.4982096 55.9785852,72.0503238 52.3602673,81.1472928 C52.6522614,81.0298931 52.8960914,80.9576472 53.1128293,80.8402475 C55.4066382,79.5819639 57.7817237,78.4440902 59.9701739,77.0232532 C64.8979496,73.82637 68.9918867,69.7836071 71.728202,64.5126632 C75.177946,57.8690462 76.1111229,50.7347588 75.7077497,43.3626618 L75.7137701,43.3626618 Z" id="Path"></path>
                <path d="M52.7214971,35.9183188 C55.0333674,35.6052531 56.6137475,33.5372128 56.5053786,30.9785021 C56.4782864,30.3553808 56.3067023,29.7593517 55.6173555,29.7111878 C54.5396868,29.6359316 53.449977,29.6630238 52.3692981,29.726239 C51.8726072,29.7563415 51.6227566,30.1597147 51.6347976,30.6714568 C51.6438283,31.1862092 51.9087302,31.511316 52.4114415,31.5895824 C52.9201734,31.6678489 53.4349258,31.7009616 54.0249344,31.7611666 C54.0339651,31.9056585 54.0580471,32.0110171 54.0460061,32.1103553 C53.934627,32.9291427 53.3807413,33.612469 52.6161384,33.7750224 C51.6408181,33.9827295 50.7558052,33.8141556 50.08452,32.9953682 C49.1603739,31.8725457 49.0610357,29.6509828 49.8768129,28.4378529 C50.4939137,27.5227376 51.5745926,27.1133439 52.6823638,27.4535019 C53.2482904,27.6280963 53.7570223,27.9802953 54.3229489,28.1488691 C54.6510659,28.2451971 55.1748491,28.269279 55.3735254,28.0766232 C55.6173555,27.8448341 55.7528167,27.321051 55.6805707,26.980893 C55.6023043,26.6226735 55.2741872,26.2554232 54.9581112,26.0266444 C52.1646012,24.0218193 47.9171415,25.5209228 47.1404976,28.8502569 C46.8966675,29.9038436 46.902688,31.0838608 47.0953438,32.155509 C47.5739732,34.8406501 49.8677821,36.3066408 52.7275176,35.9183188 L52.7214971,35.9183188 Z" id="Path"></path>
                <path d="M68.0015152,35.7948987 C68.7149439,35.8039294 69.0821941,35.4095869 69.1092864,34.5035023 C69.1423991,33.4408849 69.1243376,32.3752571 69.1243376,31.3126396 C69.1243376,30.7617643 69.1243376,30.2078787 69.1243376,29.6570033 C69.1935733,29.6389418 69.262809,29.6238906 69.3320447,29.6058291 C69.5006186,29.8225669 69.675213,30.0332843 69.8377663,30.2530324 C71.0418655,31.8454535 72.2429544,33.4408849 73.453074,35.0302957 C73.8745087,35.5841813 74.3651791,36.0929132 75.1508538,35.8039294 C75.8672928,35.5420379 75.7890263,34.8707526 75.7890263,34.280744 C75.7980571,31.8936175 75.7980571,29.5064909 75.7890263,27.1193644 C75.7890263,26.7852269 75.7498931,26.4450689 75.6686164,26.1229723 C75.5391758,25.596179 75.1358026,25.2770927 74.6361014,25.4125538 C74.2748717,25.5088818 73.877519,25.8249578 73.6999143,26.1530748 C73.5192995,26.4872123 73.5524122,26.956811 73.5494019,27.3692149 C73.5343507,28.7840314 73.5433814,30.1958377 73.5433814,31.6106542 C73.4741457,31.6226952 73.4079203,31.6347361 73.3386846,31.6467771 C73.1791415,31.4450905 73.0195983,31.2434039 72.8630654,31.0387071 C71.5927408,29.3650093 70.3284367,27.6883012 69.0520917,26.0176137 C68.6998927,25.5570457 68.1851403,25.1807648 67.6523264,25.4697485 C67.3061479,25.6563839 66.9629796,26.2132798 66.9539489,26.6106325 C66.8937439,29.2536301 66.9057849,31.9026482 66.9388977,34.5456458 C66.9509387,35.4366792 67.3091581,35.7858679 67.9985049,35.7918884 L68.0015152,35.7948987 Z" id="Path"></path>
                <path d="M57.7546315,35.8129602 C58.3717323,35.9514316 58.8684232,35.6383658 58.9466896,35.0935109 C59.1513865,33.7027764 60.0574711,33.6335407 61.1351398,33.7449199 C61.3910109,33.7720121 61.6529024,33.7479301 61.9117838,33.7479301 C62.780742,33.7479301 63.3737608,34.1442794 63.6908402,34.936978 C63.9978855,35.7045912 64.5186584,35.9965853 65.1929539,35.7828577 C65.8070445,35.5871916 66.0659258,35.0483572 65.7950035,34.2476313 C64.9069804,31.6497874 63.9978855,29.0609742 63.0496574,26.4872123 C62.7215404,25.596179 61.9719887,25.2289287 61.1321296,25.3944924 C60.3825778,25.5450047 60.0123174,26.0928699 59.7684873,26.7521141 C58.8804642,29.1573022 57.9924411,31.5624902 57.1104384,33.9676782 C57.032172,34.1844161 56.9930388,34.4162052 56.9659465,34.5155433 C56.9388543,35.2289721 57.1375307,35.6744888 57.7516212,35.8099499 L57.7546315,35.8129602 Z M61.3187649,27.989326 C61.3789699,27.9833055 61.4391748,27.977285 61.4993798,27.9712645 C61.8726505,29.1512817 62.2459213,30.3282886 62.6523047,31.6166747 L60.1116555,31.6166747 C60.53008,30.3553808 60.9244225,29.1723534 61.3187649,27.989326 Z" id="Shape"></path>
                <path d="M40.1236098,30.6503851 C40.1236098,31.9478019 40.1175893,33.2452187 40.1236098,34.5426356 C40.1266201,35.1266237 40.3644296,35.6022428 41.0026022,35.617294 C42.3752752,35.6504068 43.7479482,35.6443863 45.1206212,35.5962223 C45.6444044,35.5781608 46.0537981,35.1928491 45.9424189,34.669066 C45.8671627,34.3198772 45.5149637,33.8984425 45.1838365,33.7629814 C44.753371,33.588387 44.2205571,33.6516022 43.7298867,33.636551 C42.1826193,33.5853768 42.336142,33.98875 42.31206,32.1615295 C42.3060395,31.7220333 42.4746134,31.5594799 42.9050788,31.5715209 C43.4499337,31.5865722 43.9977988,31.5895824 44.5396434,31.547439 C45.1266417,31.5022852 45.6112916,31.2885576 45.6203224,30.5781391 C45.6293531,29.8737412 45.1687852,29.6269008 44.5697459,29.5817471 C44.0279013,29.5396036 43.4800362,29.5275626 42.9381916,29.5486344 C42.4595621,29.5666959 42.275937,29.3710298 42.3150703,28.9074516 C42.336142,28.6756625 42.3391522,28.4378529 42.3150703,28.2090741 C42.263896,27.7244242 42.4896646,27.5618708 42.9472223,27.5799323 C43.4409029,27.5979938 43.9345836,27.588963 44.425254,27.5739118 C45.4637895,27.5377888 45.8852242,27.2397743 45.8882345,26.5654788 C45.8942549,25.888173 45.4427178,25.5540355 44.4433155,25.5329638 C43.4830464,25.5149023 42.5227774,25.5149023 41.5625083,25.5329638 C40.4727986,25.5540355 40.1356508,25.8851628 40.1085586,26.9959442 C40.0814663,28.2150946 40.1025381,29.434245 40.1025381,30.6533953 C40.1085586,30.6533953 40.1115688,30.6533953 40.1175893,30.6533953 L40.1236098,30.6503851 Z" id="Path"></path>
                <path d="M30.8791387,27.4203892 C31.8634897,29.9008334 32.850851,32.3782674 33.8412226,34.8557013 C34.0579604,35.4005562 34.3138315,35.9153086 35.0302705,35.8972471 C35.7376787,35.8791856 35.9815088,35.361423 36.1952364,34.8165681 C37.1524952,32.3812776 38.1127643,29.9489973 39.0549718,27.5076863 C39.1934432,27.1524771 39.3740581,26.7220117 39.2867609,26.3938946 C39.190433,26.0356751 38.850275,25.5751072 38.5281785,25.4908203 C38.2030717,25.4065333 37.721432,25.6624044 37.4083663,25.9032242 C37.1946387,26.0657776 37.1434644,26.4480791 37.0381058,26.7400731 C36.408964,28.5191296 35.7828324,30.3011963 35.1567009,32.0802528 C35.0964959,32.0802528 35.0393012,32.0742323 34.9790962,32.0712221 C34.8225634,31.6678489 34.66001,31.2644757 34.5064873,30.8580922 C33.9285197,29.3048043 33.3625931,27.7454959 32.7695743,26.1982285 C32.5407955,25.6021995 32.1283915,25.2500005 31.4360345,25.475769 C30.77378,25.6925069 30.5931651,26.192208 30.6925033,26.8273703 C30.7226058,27.0290569 30.8008722,27.2277333 30.8791387,27.4173789 L30.8791387,27.4203892 Z" id="Path"></path>
            </g>
        </g>
    </g>
</svg>